<?xml version="1.0" standalone="no"?>
<!DOCTYPE svg PUBLIC "-//W3C//DTD SVG 20010904//EN"
 "http://www.w3.org/TR/2001/REC-SVG-20010904/DTD/svg10.dtd">
<svg version="1.0" xmlns="http://www.w3.org/2000/svg"
 width="1080.000000pt" height="1920.000000pt" viewBox="0 0 1080.000000 1920.000000"
 preserveAspectRatio="xMidYMid meet">

<g transform="translate(0.000000,1920.000000) scale(0.100000,-0.100000)"
fill="#000000" stroke="none">
<path d="M2131 19191 c-15 -10 -12 -30 12 -96 l15 -40 4 35 c3 39 33 55 35 19
1 -12 10 -30 19 -40 48 -53 84 -209 48 -209 -22 0 -53 40 -54 70 -1 14 -5 34
-10 45 -6 16 -9 17 -14 5 -4 -9 5 -47 18 -85 14 -39 45 -128 71 -200 25 -71
50 -143 54 -160 5 -16 16 -48 26 -70 27 -63 95 -274 95 -296 0 -11 -5 -30 -11
-41 -18 -33 -157 -218 -203 -269 -22 -26 -52 -62 -66 -80 -31 -42 -211 -238
-240 -262 -20 -17 -22 -25 -15 -80 11 -103 108 -435 151 -519 18 -34 18 -68 1
-68 -30 0 -254 348 -256 397 -1 18 -44 113 -50 113 -3 0 -13 -4 -21 -10 -22
-13 13 -92 150 -340 56 -101 174 -260 274 -370 32 -36 64 -76 70 -90 22 -48
179 -286 247 -373 22 -29 78 -101 124 -162 197 -257 241 -313 285 -365 26 -30
55 -66 66 -79 10 -13 53 -63 94 -111 172 -199 208 -244 262 -332 77 -126 180
-334 176 -356 -2 -10 -14 -18 -28 -20 -87 -10 -250 -65 -250 -83 0 -15 -40
-10 -56 6 -20 19 -62 19 -110 -1 -27 -11 -43 -13 -54 -6 -20 12 -70 4 -70 -12
0 -13 -51 -66 -63 -66 -4 0 -7 8 -8 18 0 13 -2 14 -6 2 -8 -19 -55 -60 -69
-60 -6 0 -17 -6 -23 -14 -6 -7 -35 -16 -64 -19 -93 -9 -100 -12 -166 -74 -25
-24 -41 -29 -41 -14 0 10 -21 20 -69 32 -24 5 -46 3 -70 -7 -38 -15 -97 -75
-107 -109 -9 -28 -24 -36 -59 -29 -24 4 -35 0 -54 -20 -38 -41 -130 -168 -146
-203 -8 -18 -20 -33 -25 -33 -13 0 -13 7 0 31 12 21 -2 26 -18 7 -5 -7 -16
-32 -23 -55 -11 -41 -14 -43 -50 -43 -32 0 -40 -5 -54 -32 -18 -33 -26 -77
-25 -134 0 -18 -8 -38 -20 -49 -12 -11 -20 -31 -20 -51 0 -25 -7 -39 -29 -55
-16 -12 -42 -49 -58 -83 -23 -51 -28 -75 -29 -146 -1 -117 -3 -130 -13 -130
-5 0 -13 10 -16 23 -6 20 -96 273 -115 322 -17 45 -41 107 -55 145 -8 22 -21
57 -29 78 -8 20 -28 75 -46 122 -17 47 -37 99 -45 115 -7 17 -41 107 -76 200
-34 94 -70 188 -80 210 -9 22 -44 112 -77 200 -54 144 -107 274 -147 359 -8
17 -21 49 -29 71 -8 22 -31 78 -51 125 -20 47 -70 168 -111 270 -41 102 -88
213 -104 248 -17 35 -30 67 -30 72 0 5 -11 33 -25 62 -13 29 -45 107 -71 173
-25 66 -66 167 -89 225 -24 58 -58 141 -75 185 -37 93 -85 208 -130 315 -17
41 -44 109 -59 150 -15 41 -51 122 -79 180 -28 58 -54 114 -59 125 -4 11 -9
-1816 -11 -4059 -1 -2244 0 -4082 3 -4085 3 -3 16 1 28 9 42 26 162 93 322
181 44 23 98 53 120 66 22 12 60 34 85 48 25 14 77 46 115 70 82 53 246 135
269 135 9 0 16 4 16 10 0 5 16 13 35 19 19 5 47 18 62 29 15 11 39 23 53 27
14 4 54 23 89 41 71 37 71 38 71 26 0 -11 -134 -82 -154 -82 -7 0 -16 -7 -20
-15 -3 -8 -17 -20 -32 -25 -14 -6 -44 -22 -67 -38 -68 -44 -80 -50 -127 -73
-25 -12 -52 -27 -60 -34 -8 -7 -44 -28 -80 -47 -172 -92 -297 -162 -322 -179
-14 -11 -29 -19 -32 -19 -3 0 -36 -19 -73 -43 -38 -24 -75 -47 -83 -50 -8 -4
-60 -32 -115 -61 l-100 -54 -3 -642 -2 -643 22 16 c71 50 161 98 217 117 64
21 107 21 191 0 68 -16 213 -31 219 -22 3 5 57 44 120 86 128 86 223 169 262
230 38 59 117 145 160 171 59 38 153 130 175 172 53 104 82 138 197 237 103
89 128 106 181 121 33 9 74 22 89 27 51 19 38 2 -20 -28 -35 -17 -84 -55 -121
-94 -35 -36 -90 -92 -124 -126 -53 -54 -61 -68 -73 -122 -7 -34 -10 -64 -7
-66 3 -3 21 3 41 13 52 28 98 41 142 41 l39 0 0 -62 c0 -34 5 -78 12 -97 15
-45 15 -44 27 -37 6 4 6 18 0 38 -11 40 -3 69 17 61 7 -3 14 0 14 6 0 6 -5 11
-11 11 -6 0 -8 9 -4 21 5 16 4 19 -5 14 -8 -5 -11 -3 -8 6 3 8 15 13 28 11 19
-2 21 1 16 23 -7 29 29 79 42 58 4 -7 27 -15 50 -19 26 -4 48 -15 57 -27 8
-12 17 -18 21 -14 4 3 14 2 24 -3 21 -11 67 32 74 70 2 14 5 27 6 30 1 3 6 -4
11 -15 7 -16 8 -14 4 10 -19 125 -19 125 5 125 18 0 20 3 11 13 -6 8 -8 17 -4
21 4 3 -2 12 -12 20 -14 10 -16 20 -11 42 4 16 10 45 13 64 3 19 10 41 16 49
6 7 10 29 8 48 -3 38 19 133 31 133 4 0 7 -8 6 -17 -3 -44 3 -71 19 -77 9 -4
20 -2 23 5 12 18 22 -8 14 -34 -6 -19 -5 -20 9 -9 9 8 17 23 19 35 4 28 21 25
29 -5 4 -16 12 -22 27 -21 21 3 26 -6 23 -34 -1 -6 4 -15 10 -19 9 -5 10 -2 6
10 -6 15 -2 16 31 10 50 -9 52 -11 52 -45 0 -17 6 -32 15 -36 9 -3 23 -19 31
-35 11 -21 20 -27 33 -23 14 4 22 -2 31 -24 14 -35 117 -141 137 -141 7 0 13
-8 13 -19 0 -10 9 -21 20 -24 11 -3 24 -17 30 -31 5 -14 14 -26 20 -26 6 0 10
-8 8 -17 -2 -14 5 -19 34 -21 35 -3 42 -10 50 -47 1 -5 13 -16 27 -23 20 -10
26 -10 33 0 6 10 8 10 9 -2 3 -50 9 -64 35 -85 28 -23 49 -29 129 -40 22 -3
46 -8 53 -10 20 -7 -38 -57 -60 -52 -10 3 -21 1 -24 -4 -3 -5 4 -9 15 -9 29 0
51 -11 51 -25 0 -17 30 -75 39 -75 4 0 12 5 19 12 9 9 12 8 12 -5 0 -9 -5 -17
-10 -17 -11 0 15 -70 29 -80 4 -3 13 -15 19 -26 9 -16 18 -20 38 -16 19 3 25
1 20 -7 -4 -6 -14 -11 -21 -11 -15 0 -32 -46 -21 -57 3 -4 6 1 6 11 0 10 5 14
11 10 7 -4 9 -26 7 -56 -3 -27 -2 -44 3 -37 5 9 10 6 18 -12 13 -32 25 -81 22
-95 -1 -7 5 -14 14 -18 8 -3 15 -12 15 -19 0 -8 13 -25 29 -38 15 -13 36 -39
45 -57 9 -17 21 -33 26 -33 6 -1 15 -2 21 -3 9 -1 52 -69 62 -100 2 -5 11 -5
23 2 21 11 54 -5 54 -28 0 -10 -3 -10 -14 -1 -8 7 -16 8 -19 4 -3 -5 12 -17
34 -27 21 -11 39 -25 39 -33 0 -8 11 -13 29 -13 27 0 81 -41 81 -62 0 -5 8 -7
19 -3 28 9 43 -16 28 -48 -6 -15 -15 -27 -19 -27 -5 0 -8 -9 -8 -20 0 -11 5
-20 11 -20 7 0 17 -7 23 -16 7 -9 37 -19 78 -24 37 -4 71 -11 76 -14 5 -3 50
-6 98 -7 49 -1 97 -5 107 -11 24 -12 78 23 167 108 36 34 87 83 113 108 27 25
46 50 42 56 -3 5 -1 18 5 27 9 15 10 15 5 -5 -6 -21 -5 -22 12 -13 31 18 53
38 53 48 0 5 9 18 21 29 22 20 49 66 49 84 0 5 -23 -15 -52 -47 -60 -66 -86
-75 -86 -29 0 17 -2 62 -5 100 -4 61 -3 69 14 73 13 4 19 14 19 34 0 16 11 53
24 84 14 30 21 55 16 55 -5 0 -5 11 2 25 7 16 18 24 32 22 12 -1 22 5 24 15 6
28 58 78 82 78 13 0 28 -7 35 -17 7 -9 17 -13 24 -9 9 6 9 11 1 21 -9 10 -6
16 9 25 24 12 23 14 26 -25 3 -40 -34 -161 -72 -235 -7 -14 -13 -29 -13 -33 0
-5 -7 -15 -15 -23 -8 -9 -15 -23 -15 -32 1 -49 82 105 160 300 12 32 28 58 35
58 24 0 45 -12 45 -26 0 -8 5 -14 10 -14 6 0 10 14 10 30 0 23 5 30 19 30 11
0 26 3 34 6 12 4 14 0 10 -15 -4 -15 -1 -21 10 -21 20 0 31 16 17 25 -5 3 -10
24 -10 45 0 35 4 43 39 64 44 28 113 105 105 118 -3 4 2 11 12 15 11 4 28 -6
55 -35 42 -46 59 -52 59 -22 0 11 -7 20 -15 20 -13 0 -21 25 -16 53 0 4 -3 7
-9 7 -5 0 -12 16 -16 35 -3 19 -11 35 -16 35 -7 0 -9 18 -5 48 2 26 3 39 0 30
-2 -10 -10 -15 -19 -11 -18 7 -18 27 1 43 17 14 21 60 5 60 -16 0 -12 67 6 84
8 9 20 16 25 16 5 0 9 11 9 24 0 13 9 35 20 49 11 14 20 29 20 33 0 4 11 22
26 41 14 18 20 33 15 33 -18 0 -12 35 9 53 18 15 18 47 0 47 -5 0 -11 8 -13
18 -4 16 -5 16 -6 0 0 -10 -7 -18 -15 -18 -23 0 -56 -55 -56 -92 0 -21 -14
-56 -40 -98 -22 -36 -45 -77 -52 -91 -9 -21 -18 -26 -41 -25 -23 1 -33 -6 -46
-28 -20 -36 -41 -45 -41 -18 0 11 -8 30 -18 42 l-18 22 -12 -40 c-12 -39 -32
-66 -32 -43 0 6 -18 11 -41 11 -35 0 -40 3 -34 17 7 20 8 23 6 41 -2 21 -16
13 -29 -18 -8 -16 -20 -30 -29 -30 -8 0 -24 -10 -34 -22 l-20 -23 6 24 c7 22
5 23 -33 16 -25 -4 -42 -2 -47 4 -3 6 -15 11 -26 11 -10 0 -31 14 -46 31 -24
27 -28 28 -34 12 -3 -11 -16 -18 -30 -18 -17 0 -24 -6 -24 -20 0 -11 -6 -21
-13 -21 -6 -1 -16 -2 -21 -3 -5 0 -25 -16 -44 -35 -20 -19 -38 -32 -41 -28 -3
3 -6 20 -6 38 l0 34 -47 -6 c-27 -3 -64 -10 -83 -15 -59 -15 -87 -11 -93 12
-5 19 -11 21 -41 15 -30 -6 -40 -3 -59 17 -22 23 -56 26 -58 4 -1 -7 -4 0 -8
15 -6 25 -7 26 -26 11 -14 -11 -16 -17 -7 -20 6 -3 12 -12 12 -21 0 -13 -2
-14 -9 -3 -6 9 -11 10 -15 2 -15 -24 -26 -9 -26 34 0 33 4 45 15 45 8 0 15 5
15 10 0 20 -77 1 -92 -23 -4 -6 -10 -8 -14 -4 -4 3 -2 13 4 20 14 17 1 69 -19
75 -11 3 -11 2 -1 -6 10 -7 2 -11 -27 -16 -23 -3 -41 -11 -41 -16 0 -6 -4 -10
-10 -10 -5 0 -10 8 -10 18 0 21 -44 44 -58 30 -13 -13 -53 27 -46 45 3 9 -6
19 -25 27 -24 10 -30 19 -33 48 -4 43 -23 49 -41 12 -11 -22 -18 -25 -59 -23
-45 2 -62 -7 -63 -32 0 -5 -17 -9 -38 -9 -33 1 -38 -2 -43 -25 -13 -60 -24
-67 -42 -26 -15 33 -15 33 6 31 36 -2 17 29 -24 39 -23 6 -48 16 -58 24 -9 7
-37 16 -62 19 -34 4 -48 10 -51 23 -3 11 -10 19 -15 19 -6 0 -8 6 -5 14 6 15
-22 46 -40 46 -6 0 -14 8 -18 18 -6 16 -7 16 -21 -2 -7 -11 -16 -17 -20 -14
-8 9 14 48 29 49 7 1 -3 4 -21 8 -18 3 -32 10 -32 14 1 5 -6 14 -16 21 -11 8
-13 15 -6 19 7 5 7 14 -1 32 -9 18 -21 25 -47 27 -26 2 -35 7 -34 21 1 9 -5
17 -13 17 -11 0 -13 7 -10 23 9 34 -8 52 -50 52 -34 0 -37 2 -38 30 0 24 -7
33 -38 47 -36 18 -37 20 -31 58 6 38 5 40 -19 40 -27 0 -46 18 -30 29 16 10
11 43 -10 68 -25 28 -44 29 -52 3 -4 -11 -11 -18 -16 -15 -5 4 -3 14 3 25 11
16 8 24 -16 49 -18 19 -26 36 -22 48 6 21 -11 46 -38 56 -18 7 -18 24 0 70 3
10 -3 17 -20 21 -25 6 -29 13 -30 66 -1 22 -5 25 -33 24 -18 -1 -33 2 -33 7 0
5 6 9 14 9 8 0 17 7 20 16 10 25 7 34 -8 28 -16 -6 -36 24 -36 53 0 10 -11 40
-25 67 -31 62 -31 73 2 104 l27 25 -47 -5 c-54 -6 -67 4 -36 26 21 14 21 16 6
39 -9 14 -13 33 -11 44 7 26 -20 53 -52 53 -28 0 -42 25 -27 48 13 22 33 27
33 8 0 -23 47 -20 60 3 12 24 13 91 1 110 -13 20 -22 -2 -25 -59 -3 -53 -21
-66 -22 -15 -1 51 -15 115 -25 109 -5 -3 -6 -23 -3 -45 6 -37 5 -39 -21 -39
-24 0 -26 2 -15 15 11 13 10 18 -6 30 -39 30 -39 29 -20 -168 11 -117 10 -131
-5 -156 -17 -29 -55 -46 -65 -30 -3 5 -23 9 -44 9 -27 0 -53 9 -82 29 -52 35
-224 212 -240 247 -6 13 -14 24 -18 24 -11 0 -76 150 -89 206 -7 28 -16 76
-21 105 -5 30 -14 74 -20 99 -6 25 -13 52 -15 60 -2 8 -13 44 -24 79 -24 72
-26 126 -10 256 13 115 43 213 80 267 16 24 29 48 29 54 0 15 60 69 97 88 61
31 163 12 163 -30 0 -8 4 -14 9 -14 4 0 23 -27 40 -60 18 -33 39 -60 46 -60 8
0 26 -18 39 -39 14 -22 30 -42 36 -46 5 -3 10 -15 10 -25 0 -10 6 -21 13 -23
9 -4 9 -6 -1 -6 -9 -1 -9 -8 3 -32 10 -19 22 -29 31 -25 19 7 34 -25 33 -71
l-1 -38 -11 30 -11 30 -11 -50 c-8 -35 -8 -54 -1 -64 6 -8 9 -24 8 -37 -2 -13
1 -24 7 -24 6 0 11 -10 10 -22 l0 -23 -11 23 c-6 12 -17 22 -25 22 -9 0 -13
13 -13 40 0 50 -23 54 -45 8 -8 -18 -28 -51 -44 -73 -16 -22 -32 -58 -36 -79
l-8 -39 34 7 34 6 3 -57 c2 -31 6 -61 8 -65 9 -14 24 2 24 25 0 12 15 37 32
56 36 40 57 35 70 -17 5 -17 13 -34 19 -38 14 -9 30 16 25 38 -2 9 1 19 8 21
7 3 5 11 -7 25 -11 12 -16 26 -11 33 5 9 10 6 16 -10 16 -45 43 -14 53 63 5
36 11 50 26 53 17 5 17 7 4 17 -8 6 -17 25 -21 42 -5 25 -2 32 14 36 15 4 21
18 26 61 4 30 14 63 21 73 8 11 15 39 15 64 1 25 4 39 7 33 2 -7 11 -13 18
-13 10 0 12 15 9 57 -2 31 -7 66 -10 76 -5 14 -2 18 13 15 14 -3 20 6 29 39
12 48 7 106 -9 96 -6 -4 -7 -1 -3 6 5 7 15 10 23 7 25 -10 32 3 18 30 -14 28
-7 73 17 101 7 8 11 30 9 48 -1 18 2 36 8 40 15 9 14 45 -3 64 -20 24 -27 98
-10 111 7 7 17 9 22 6 13 -8 36 50 26 65 -5 8 -2 10 8 6 12 -4 19 5 27 39 6
24 15 43 19 43 18 -3 32 2 32 11 0 5 16 32 35 59 19 26 35 53 35 59 0 6 9 16
19 22 11 5 23 19 26 30 3 11 13 20 20 20 8 0 22 11 31 25 14 21 15 31 6 50 -9
19 -9 25 1 25 7 0 25 14 40 30 25 26 26 30 10 30 -25 0 -35 10 -24 24 5 6 11
34 13 62 4 38 12 59 32 80 14 16 32 41 38 56 7 15 22 31 33 37 20 10 20 10 0
11 -17 2 -16 3 5 9 16 4 28 17 34 39 9 34 10 34 117 36 14 1 32 6 40 12 8 6
41 14 73 17 56 6 81 20 69 39 -5 10 -100 5 -110 -5 -8 -8 -33 12 -33 25 0 18
74 85 101 91 26 7 60 -18 71 -53 4 -11 9 -7 18 13 14 29 30 36 30 12 0 -21 32
-19 58 5 12 11 25 20 30 20 5 0 35 13 68 29 32 16 71 33 87 36 23 6 27 4 27
-13 0 -12 -5 -24 -10 -27 -6 -3 -10 -11 -10 -17 0 -7 6 -6 15 2 8 7 15 22 15
33 0 24 65 87 90 87 9 0 29 10 43 23 50 44 71 57 94 57 13 0 32 9 44 21 13 13
27 18 40 14 13 -4 27 -1 38 9 15 13 50 17 207 19 190 2 284 -3 284 -14 0 -7
27 -18 69 -28 14 -3 32 -19 40 -35 9 -16 27 -33 39 -37 20 -8 22 -6 16 19 -4
15 -10 29 -14 32 -9 7 -40 53 -40 60 0 3 11 5 25 5 14 0 25 -2 25 -5 0 -3 12
-6 27 -5 19 0 28 -6 32 -22 5 -18 61 -73 61 -60 0 3 17 -3 38 -13 l37 -19 23
30 c13 16 30 29 38 29 8 0 12 5 9 10 -3 6 -1 10 5 10 7 0 10 -6 7 -14 -17 -45
-29 -97 -24 -103 4 -3 18 4 32 17 20 18 28 21 37 12 17 -17 43 -15 80 7 17 11
35 18 40 15 11 -7 -12 -30 -39 -38 -15 -5 -19 -13 -16 -26 3 -11 9 -20 14 -20
5 0 9 -10 9 -22 0 -19 2 -20 18 -6 9 8 34 18 55 21 32 5 37 3 37 -14 0 -12 7
-19 20 -19 11 0 20 7 20 16 0 13 4 12 28 -4 36 -26 94 -50 109 -45 7 3 22 -5
35 -16 15 -14 24 -17 29 -10 4 8 9 4 13 -9 8 -24 58 -52 92 -52 14 0 28 -9 35
-22 7 -13 18 -27 25 -31 8 -4 14 -14 14 -22 0 -7 8 -16 19 -20 78 -25 271
-320 271 -416 0 -14 4 -29 9 -35 34 -36 118 -594 112 -749 l-1 -30 -23 25
c-13 14 -29 39 -37 57 -8 18 -24 34 -36 37 -19 5 -230 26 -261 26 -7 0 -13 7
-13 15 0 20 -49 20 -78 -1 -22 -15 -24 -14 -43 10 -26 33 -37 33 -76 -4 -18
-17 -36 -30 -41 -30 -5 0 -17 -9 -27 -20 -22 -24 -35 -26 -35 -3 0 39 -19 -5
-20 -47 -1 -25 -4 -71 -7 -104 l-5 -58 -32 7 c-40 9 -68 8 -75 -3 -3 -4 -28
-16 -56 -26 -61 -23 -81 -40 -88 -72 -4 -21 -1 -24 24 -24 15 0 41 12 59 26
19 16 45 28 67 29 20 1 41 8 47 16 6 8 33 15 61 17 27 2 54 7 60 12 5 4 35 13
65 19 30 7 58 17 62 24 6 9 8 9 8 0 0 -16 52 -17 67 -2 8 8 27 9 60 3 64 -11
72 -11 112 -3 18 4 41 4 50 -1 21 -12 91 -25 116 -22 11 2 32 -3 47 -9 39 -16
44 -70 23 -237 -14 -109 -17 -175 -12 -336 4 -111 12 -221 18 -246 52 -204 57
-502 14 -717 -14 -68 -30 -131 -35 -141 -5 -9 -23 -60 -41 -112 -17 -52 -41
-120 -53 -150 -29 -69 -47 -121 -49 -138 -2 -11 31 -15 158 -18 88 -2 180 -8
205 -13 25 -5 56 -12 70 -15 14 -2 41 -9 60 -15 19 -5 67 -19 105 -30 111 -32
245 -83 312 -120 116 -63 230 -186 317 -342 10 -19 51 -68 90 -109 39 -41 111
-121 160 -178 80 -93 89 -101 101 -85 19 29 43 144 40 193 -3 47 -22 135 -24
113 -1 -18 -21 -16 -21 2 0 8 5 15 10 15 6 0 10 24 10 54 0 37 6 61 19 77 10
13 21 49 25 79 8 73 21 141 31 164 6 14 5 17 -4 12 -34 -21 13 88 71 165 18
24 41 55 50 69 8 15 49 60 90 101 61 63 84 79 134 96 107 36 189 15 218 -57 9
-22 16 -46 16 -54 0 -21 -41 -108 -66 -142 -13 -16 -41 -71 -63 -120 l-41 -91
-4 -199 c-3 -142 0 -219 10 -269 7 -38 23 -137 34 -220 20 -148 53 -307 91
-448 22 -84 73 -291 95 -392 9 -38 22 -86 29 -105 7 -19 22 -57 32 -85 9 -27
32 -66 49 -85 26 -30 124 -205 124 -222 0 -4 18 -37 39 -75 22 -38 41 -83 44
-100 5 -33 29 -71 90 -143 56 -66 56 -66 46 -81 -14 -23 -11 -29 18 -29 20 0
44 -18 100 -77 40 -43 73 -84 73 -92 0 -25 53 -123 69 -129 17 -6 80 -72 81
-84 0 -4 -6 -13 -14 -21 -12 -11 -10 -18 15 -47 28 -32 33 -46 30 -82 -3 -28
48 -87 83 -96 24 -7 30 -13 28 -30 -3 -23 13 -31 20 -10 4 10 13 10 44 1 21
-7 51 -15 67 -18 28 -6 38 -35 12 -35 -9 0 -14 -8 -12 -20 4 -26 13 -34 29
-24 7 4 27 7 45 5 18 -1 33 2 33 7 0 6 3 18 7 27 5 14 2 16 -15 10 -13 -3 -22
-2 -22 4 0 19 44 41 82 41 32 0 42 -7 79 -50 23 -27 46 -50 52 -50 5 0 35 -23
66 -52 80 -73 169 -136 203 -143 20 -5 34 -17 45 -41 19 -39 43 -45 43 -10 0
13 7 27 16 30 23 9 24 8 24 -14 0 -10 7 -23 16 -28 13 -7 15 -15 7 -37 l-9
-28 -13 31 -13 31 -24 -27 c-13 -15 -28 -31 -33 -37 -17 -20 -51 -45 -60 -45
-6 0 -13 9 -16 20 -3 11 -11 20 -17 20 -6 0 -19 6 -27 14 -23 20 -54 27 -71
16 -13 -8 -12 -12 6 -30 11 -12 29 -22 40 -24 10 -1 23 -12 29 -24 5 -12 22
-24 37 -28 16 -3 38 -20 51 -38 18 -27 26 -32 44 -25 15 5 25 3 34 -7 7 -9 26
-22 42 -30 17 -9 26 -21 23 -29 -5 -13 23 -45 38 -45 5 0 24 -13 43 -30 18
-17 31 -30 27 -30 -4 0 5 -11 20 -25 15 -13 26 -35 26 -49 0 -17 12 -34 35
-52 20 -15 38 -24 42 -20 3 3 2 6 -3 6 -5 0 -11 14 -12 31 -1 17 -7 40 -13 50
-8 15 -6 21 7 26 10 4 19 2 22 -5 2 -7 10 -12 18 -12 8 0 24 -9 36 -20 12 -11
28 -20 35 -20 7 0 13 -9 13 -19 0 -11 5 -23 10 -26 6 -3 10 -23 10 -44 0 -25
7 -44 20 -56 11 -10 20 -24 20 -32 0 -16 12 -17 28 -1 15 15 32 -4 32 -38 0
-11 7 -35 16 -52 8 -17 21 -70 28 -118 9 -61 18 -90 30 -100 13 -9 17 -21 12
-41 -21 -101 -32 -169 -29 -175 7 -14 41 -8 47 7 3 8 13 15 22 15 11 0 14 -5
9 -18 -4 -9 -9 -25 -12 -34 -3 -9 -18 -20 -34 -23 -37 -8 -43 -19 -28 -47 8
-14 12 -54 10 -100 -1 -42 2 -79 8 -82 5 -3 12 -29 16 -57 8 -54 28 -73 49
-44 7 10 22 16 37 13 19 -2 25 -11 31 -43 3 -22 8 -49 10 -59 2 -10 -3 -21
-10 -23 -7 -3 -12 4 -12 16 0 27 -14 27 -41 0 -13 -13 -19 -28 -15 -42 2 -12
-2 -31 -10 -41 -8 -11 -14 -30 -14 -43 0 -25 -38 -113 -49 -113 -4 0 -12 5
-18 11 -7 7 -15 5 -27 -6 -9 -9 -16 -14 -16 -10 0 3 -14 -10 -30 -29 -23 -26
-29 -41 -25 -59 4 -14 2 -28 -4 -31 -6 -4 -11 -17 -11 -30 0 -12 -3 -26 -7
-30 -4 -3 -8 -13 -9 -21 -1 -7 -7 -30 -14 -50 -7 -20 -9 -39 -5 -43 10 -11 25
21 25 56 0 25 4 32 20 32 11 0 20 -4 20 -10 0 -5 -6 -10 -14 -10 -8 0 -12 -8
-9 -23 3 -16 -6 -37 -31 -68 -20 -24 -39 -52 -42 -61 -3 -10 -15 -20 -25 -23
-10 -4 -19 -9 -19 -13 0 -4 -4 -13 -9 -20 -7 -12 -14 -11 -41 3 -19 10 -42 14
-57 10 -22 -5 -23 -4 -13 15 6 11 14 20 19 20 15 0 51 37 51 54 0 9 6 25 13
37 10 17 9 22 -5 33 -13 9 -14 16 -6 24 8 8 1 16 -28 29 -21 10 -40 21 -42 26
-5 10 -32 9 -32 -2 0 -12 -60 -32 -73 -24 -6 4 -8 0 -4 -11 6 -14 2 -16 -27
-11 -24 5 -45 1 -76 -15 -26 -13 -54 -20 -72 -18 -22 4 -32 0 -40 -15 -10 -20
-11 -20 -24 -2 -13 18 -14 17 -14 -8 0 -33 -8 -34 -42 -2 -30 28 -48 34 -27 9
11 -14 9 -19 -11 -35 -37 -28 -50 -24 -50 16 0 21 -5 35 -12 36 -37 3 -94 -4
-104 -12 -8 -6 -17 -5 -27 5 -25 26 -66 30 -88 10 -16 -14 -24 -16 -37 -7 -10
6 -32 14 -50 18 -18 3 -32 11 -32 16 0 5 -11 7 -25 3 -20 -5 -25 -2 -25 14 0
26 -37 72 -59 72 -25 0 -33 11 -19 28 10 12 8 13 -12 10 -19 -2 -24 1 -22 14
3 21 -14 32 -22 13 -7 -19 -36 -8 -37 14 0 12 -2 12 -9 -4 -12 -27 -12 -37 -1
-30 15 9 25 -15 12 -28 -9 -9 -15 -8 -22 6 -6 9 -16 17 -24 17 -8 0 -17 11
-21 25 -7 30 -20 32 -29 6 -3 -10 -13 -18 -23 -17 -9 0 -16 -5 -15 -11 2 -8
-7 -13 -20 -13 -20 1 -20 2 -4 11 9 6 15 14 12 20 -4 5 0 9 8 9 16 0 27 21 27
50 0 21 -61 41 -68 21 -4 -13 -32 -15 -32 -2 0 5 -10 7 -22 5 -17 -3 -16 -1 4
7 16 6 28 15 28 19 0 16 -21 22 -35 10 -12 -10 -20 -8 -40 11 -28 27 -32 41
-10 33 16 -7 -39 116 -59 128 -8 6 -8 8 2 8 6 0 12 7 12 15 0 9 -6 12 -15 9
-8 -4 -15 -12 -15 -20 0 -33 -36 -8 -46 31 -4 17 -10 32 -15 35 -4 3 -9 14
-11 25 -1 11 -5 22 -8 25 -24 23 -43 70 -41 101 2 26 -2 38 -14 43 -9 3 -25
27 -37 53 -11 27 -24 50 -27 53 -9 7 -78 151 -86 180 -4 14 -11 27 -15 30 -4
3 -10 15 -14 28 -9 28 17 41 42 20 9 -8 25 -18 34 -21 11 -4 16 -13 12 -24 -5
-16 -4 -16 8 -2 7 9 27 21 43 27 17 6 23 11 13 11 -31 2 -21 31 10 31 34 0 72
-37 72 -69 0 -19 4 -22 24 -17 16 4 26 1 30 -9 7 -19 46 -20 46 -2 0 8 -11 20
-25 27 -19 10 -22 17 -15 31 13 23 4 44 -26 64 -22 14 -29 14 -67 1 -23 -8
-46 -11 -52 -6 -5 4 -23 10 -40 13 -16 4 -24 4 -17 1 20 -9 14 -24 -9 -24 -12
0 -27 7 -33 15 -6 8 -27 17 -46 19 -19 2 -38 4 -41 5 -4 0 -9 15 -13 32 -3 17
-9 28 -14 26 -4 -3 -6 13 -4 36 2 34 1 39 -8 25 -12 -20 -30 -24 -30 -7 0 6
-12 26 -26 45 -15 19 -23 34 -18 34 5 0 -7 8 -26 19 -24 12 -36 26 -38 45 -2
14 -8 26 -13 26 -6 0 -7 5 -4 10 3 6 -1 10 -10 10 -9 0 -18 12 -21 29 -4 17
-14 32 -23 34 -9 2 9 9 40 16 44 11 61 11 78 1 13 -6 25 -9 29 -6 9 10 -56 68
-68 61 -6 -4 -18 -1 -27 7 -15 11 -16 10 -11 -9 7 -26 -7 -40 -19 -20 -8 14
-39 29 -62 31 -8 1 -31 25 -51 55 -20 29 -44 58 -54 63 -9 5 -16 18 -16 29 0
11 -4 18 -9 14 -10 -6 -51 32 -51 47 0 5 -24 33 -53 63 -35 36 -75 64 -122 85
-39 18 -79 36 -90 41 -45 20 -109 39 -133 39 -14 0 -33 7 -43 16 -27 24 -31 0
-6 -37 13 -19 29 -56 37 -84 7 -27 22 -66 32 -85 10 -19 16 -42 13 -51 -3 -8
6 -33 20 -53 14 -21 23 -41 21 -45 -3 -4 2 -20 10 -35 7 -16 14 -37 14 -47 0
-10 5 -21 10 -24 6 -3 10 -15 10 -27 0 -11 8 -22 18 -25 14 -3 18 -11 14 -29
-2 -13 1 -31 8 -39 7 -8 9 -22 6 -31 -4 -9 1 -28 9 -41 9 -13 13 -28 10 -33
-8 -13 -52 -13 -60 0 -9 15 -67 11 -90 -6 -18 -14 -20 -13 -26 8 -6 21 -7 21
-14 5 -4 -10 -3 -28 3 -40 16 -34 23 -77 13 -77 -5 0 -22 5 -36 10 -23 9 -26
8 -23 -7 2 -10 9 -17 14 -16 5 1 19 -12 29 -28 23 -34 31 -36 38 -10 3 15 11
18 27 14 18 -5 21 -11 18 -35 -3 -19 1 -33 11 -41 9 -7 21 -21 27 -32 6 -11
16 -20 22 -20 6 0 14 -3 18 -8 4 -4 -2 -7 -13 -7 -24 0 -49 -25 -34 -34 5 -3
16 -4 24 0 8 3 23 -5 33 -19 11 -13 25 -22 33 -19 16 5 65 -44 51 -53 -6 -3
-10 -10 -10 -16 0 -14 28 -11 33 4 3 6 6 2 6 -10 1 -12 7 -28 14 -35 33 -34
62 -99 97 -213 10 -33 27 -83 38 -111 20 -54 76 -124 98 -124 7 0 19 -8 26
-18 7 -10 28 -24 45 -31 18 -7 45 -25 60 -40 29 -27 67 -51 116 -73 15 -7 27
-17 27 -23 1 -5 23 -27 49 -48 83 -65 141 -128 141 -151 0 -8 3 -16 8 -18 10
-4 40 -95 48 -148 4 -25 16 -63 28 -85 12 -22 23 -53 25 -70 1 -16 9 -37 16
-45 7 -8 16 -26 20 -40 4 -14 14 -33 23 -43 8 -9 20 -26 26 -36 6 -11 24 -42
40 -70 16 -28 37 -53 47 -56 10 -3 28 -18 41 -33 13 -15 51 -48 85 -74 34 -25
81 -68 103 -95 23 -26 50 -55 60 -64 10 -9 36 -37 59 -62 35 -42 41 -45 55
-32 16 16 32 4 21 -15 -4 -6 6 -32 21 -58 35 -60 104 -129 113 -114 4 6 16 9
28 6 15 -4 19 -11 16 -25 -4 -15 0 -22 15 -26 20 -5 20 -7 7 -32 -12 -23 -12
-31 0 -52 8 -13 20 -34 26 -47 7 -12 17 -21 23 -19 6 3 19 -2 28 -10 22 -20
36 -10 44 32 7 39 14 47 32 36 15 -9 -14 -110 -35 -118 -12 -5 23 -39 91 -88
15 -11 44 -32 63 -47 20 -16 40 -28 44 -28 5 0 24 -15 42 -33 53 -50 92 -83
120 -102 25 -16 26 -16 43 17 10 18 17 36 16 41 -6 22 31 2 65 -36 47 -51 87
-133 134 -270 29 -87 39 -104 85 -149 29 -28 73 -64 97 -79 40 -25 58 -46 62
-74 5 -31 34 -89 77 -153 23 -35 28 -54 28 -103 0 -78 20 -115 64 -116 17 -1
66 -6 109 -12 89 -13 117 -4 117 34 0 13 -4 27 -10 30 -5 3 -10 18 -10 33 0
45 -37 131 -70 165 -18 18 -36 42 -41 55 -5 12 -12 21 -16 20 -16 -3 -43 15
-43 28 0 8 -7 14 -15 14 -8 0 -15 7 -15 16 0 8 -3 13 -8 10 -12 -7 -48 24 -36
32 6 4 19 25 30 47 10 22 21 42 24 45 4 3 10 32 13 64 8 78 21 89 39 34 11
-31 21 -44 36 -46 20 -3 22 1 20 30 -3 31 -1 33 33 36 l37 3 0 -48 c0 -26 1
-52 3 -58 2 -5 -1 -25 -5 -43 -9 -39 6 -64 26 -44 18 18 43 15 64 -9 l19 -21
6 28 c3 16 2 37 -3 47 -7 14 -4 17 27 17 31 0 35 3 35 25 0 28 -21 33 -40 10
-20 -24 -28 -18 -35 30 -5 30 -14 49 -30 59 -27 18 -40 62 -25 81 6 7 22 11
36 9 27 -5 94 39 94 61 0 21 -42 26 -62 8 -17 -15 -18 -15 -18 5 0 11 -4 24
-10 27 -5 3 -10 22 -10 41 0 27 4 34 19 34 14 0 21 -9 26 -31 4 -17 13 -33 21
-36 23 -9 26 1 9 33 -19 38 -19 41 5 49 20 6 20 13 20 1005 0 871 -2 998 -15
994 -10 -4 -18 3 -25 21 -6 17 -16 25 -24 22 -14 -5 -36 10 -36 25 0 4 12 8
26 8 35 0 74 42 74 81 0 31 -16 40 -22 12 -2 -13 -12 -4 -33 29 -17 26 -38 50
-47 53 -23 8 -23 22 1 35 22 11 37 -2 25 -21 -11 -18 37 -49 58 -38 16 9 18
25 18 133 0 96 -3 126 -15 136 -22 19 -50 8 -51 -20 -1 -31 -14 -90 -20 -90
-2 0 -18 13 -35 29 -26 25 -29 33 -19 50 9 17 8 22 -5 27 -8 3 -15 12 -15 19
0 14 65 16 86 3 6 -4 18 2 28 13 9 12 24 18 32 15 8 -3 14 1 14 9 0 17 -27 20
-32 4 -2 -6 -11 -7 -22 -3 -15 6 -17 15 -13 53 4 34 1 51 -10 64 -25 27 -8 32
30 8 19 -11 37 -21 39 -21 3 0 6 50 6 110 1 121 -7 133 -54 87 -68 -66 -73
-69 -90 -52 -18 18 -34 12 -34 -14 0 -9 -5 -22 -12 -29 -8 -8 -8 -15 0 -25 13
-15 6 -27 -15 -27 -16 0 -18 54 -2 97 9 27 17 32 57 38 43 6 82 28 82 45 0 4
-13 5 -30 2 -21 -3 -32 0 -36 12 -3 8 -22 19 -42 22 -20 4 -41 12 -48 18 -13
13 -14 46 -2 46 4 0 8 -7 8 -15 0 -18 9 -19 47 -4 15 6 44 12 65 13 35 1 37
-1 42 -36 6 -38 17 -45 50 -32 13 5 16 22 16 85 0 43 -3 79 -6 79 -21 0 -74
-44 -74 -61 0 -11 -4 -17 -10 -14 -5 3 -10 15 -10 26 0 10 5 19 10 19 6 0 10
11 10 26 0 30 40 104 56 104 7 0 15 7 18 16 3 9 6 148 6 309 0 225 -3 295 -12
299 -10 5 -10 7 0 12 9 4 12 372 12 1788 l0 1782 -62 17 c-73 21 -148 58 -148
72 0 13 45 102 62 122 8 10 22 13 40 9 18 -3 27 -2 23 4 -3 6 5 10 18 10 14 0
27 7 31 15 3 8 12 15 21 15 13 0 15 237 15 2255 0 1240 -4 2255 -9 2255 -4 0
-8 14 -9 31 0 18 -6 37 -11 42 -6 6 -11 27 -11 47 0 42 -10 80 -20 80 -3 0
-14 -27 -24 -60 -9 -34 -21 -58 -26 -55 -15 9 -51 -30 -44 -48 4 -11 -2 -16
-23 -19 -20 -2 -29 -9 -31 -25 -2 -16 2 -23 13 -23 14 0 16 -6 11 -27 -4 -16
-7 -38 -7 -50 0 -12 -6 -34 -14 -50 -8 -15 -15 -34 -15 -40 0 -7 -9 -18 -20
-25 -24 -15 -27 -33 -4 -24 10 4 14 1 12 -6 -3 -7 -14 -14 -26 -16 -17 -3 -23
4 -31 34 -6 21 -7 42 -2 48 11 14 41 118 41 141 0 15 -7 16 -45 11 -40 -6 -45
-5 -45 11 0 25 -19 43 -44 43 -18 0 -18 -1 -3 -18 18 -20 13 -30 -26 -55 -15
-10 -25 -22 -22 -27 4 -6 1 -10 -5 -10 -17 0 -23 26 -11 48 8 15 7 30 -5 58
-14 34 -14 38 0 46 22 12 20 25 -5 31 -17 5 -20 10 -14 29 22 71 25 145 5 133
-5 -3 -6 18 -3 47 5 49 3 55 -24 80 -49 46 -142 33 -232 -34 -13 -10 -32 -18
-42 -18 -15 0 -38 -12 -139 -71 -8 -5 -36 -20 -61 -33 -25 -14 -60 -36 -77
-50 -16 -15 -36 -26 -44 -26 -7 0 -31 -9 -53 -20 -21 -11 -53 -24 -70 -30 -18
-6 -41 -20 -50 -30 -10 -11 -22 -20 -27 -20 -16 0 -128 -89 -119 -94 5 -3 28
1 51 9 24 8 46 13 49 9 7 -7 -37 -41 -64 -50 -11 -3 -30 -16 -42 -27 -14 -12
-23 -15 -23 -8 0 7 -4 10 -9 7 -4 -3 -11 -29 -14 -57 -4 -28 -12 -58 -19 -67
-8 -9 -14 -48 -15 -96 -1 -45 -2 -90 -3 -101 -1 -11 0 -29 2 -40 2 -11 -2 -19
-8 -18 -7 1 -15 -10 -19 -25 -3 -15 -16 -35 -28 -44 -20 -16 -21 -17 -4 -36 9
-10 17 -23 17 -28 0 -15 -56 -54 -78 -54 -10 0 -23 -5 -30 -12 -6 -6 -15 -8
-19 -4 -4 4 -1 11 7 16 11 7 12 14 3 32 -28 59 -43 119 -48 191 -5 83 6 117
37 117 9 0 20 5 23 10 4 6 22 17 41 25 19 8 37 21 40 30 3 8 14 15 24 15 19 0
30 27 30 74 0 25 -3 28 -22 22 -13 -3 -33 -6 -45 -6 -13 0 -23 -5 -23 -10 0
-6 -16 -28 -36 -48 -20 -20 -40 -46 -44 -57 -8 -18 -9 -17 -9 8 -1 15 4 36 11
47 7 10 9 22 6 25 -7 7 -118 -55 -195 -107 -23 -15 -88 -51 -145 -79 -57 -28
-114 -59 -128 -68 -14 -10 -59 -30 -100 -45 -41 -16 -82 -34 -90 -41 -13 -10
-158 -93 -252 -145 -16 -8 -99 -55 -185 -104 -87 -49 -180 -102 -208 -118 -27
-15 -81 -44 -119 -64 -38 -20 -81 -44 -95 -54 -30 -20 -203 -119 -300 -171
-36 -19 -104 -58 -151 -87 -47 -29 -90 -52 -96 -52 -6 0 -17 -7 -24 -15 -7 -9
-32 -25 -54 -36 -75 -36 -200 -105 -266 -147 -72 -46 -241 -134 -247 -128 -11
10 54 84 90 103 23 12 52 31 64 42 12 12 25 21 28 21 15 0 106 46 174 89 42
26 119 70 171 98 141 75 172 94 207 127 38 35 40 43 16 48 -13 3 -7 9 21 21
43 19 70 22 61 7 -3 -5 1 -10 9 -10 9 0 16 5 16 10 0 6 6 10 14 10 7 0 20 8
27 17 13 15 11 16 -18 10 -35 -7 -42 4 -23 33 9 13 11 13 20 0 6 -10 10 -11
10 -2 0 20 17 14 23 -9 4 -16 12 -20 34 -17 15 2 27 7 25 12 -4 10 44 36 68
36 9 0 25 10 36 21 l19 21 -42 -7 c-34 -5 -43 -4 -43 8 0 9 15 16 42 20 23 3
48 13 55 23 7 9 29 18 50 20 21 3 43 5 50 6 6 1 14 14 17 30 5 27 8 28 46 22
33 -5 40 -4 40 10 0 9 8 20 18 23 9 4 22 14 29 22 6 9 15 13 19 9 4 -4 22 6
41 22 18 17 39 30 44 30 6 0 28 13 48 29 34 27 100 60 130 65 7 1 21 13 31 25
16 22 29 26 103 35 27 4 56 21 70 44 4 6 17 12 27 12 10 0 22 5 25 10 4 6 -6
10 -22 10 l-27 0 39 40 c22 21 44 39 48 40 5 0 20 13 33 30 14 16 42 37 62 47
20 9 48 25 61 35 13 10 32 18 43 18 11 0 35 12 54 26 19 15 34 23 34 20 0 -4
9 2 21 13 27 25 60 34 52 15 -8 -21 12 -17 65 11 26 14 52 25 59 25 7 0 16 6
20 13 10 16 62 39 73 32 5 -3 25 6 46 20 20 14 41 25 45 25 8 0 36 20 64 48 8
6 29 12 47 12 41 0 88 45 88 85 0 14 4 24 9 20 6 -3 13 1 18 8 4 8 31 22 58
32 28 10 55 22 60 26 6 3 26 10 45 14 19 4 37 11 40 14 9 12 160 101 168 99 4
-2 60 23 124 55 65 31 122 57 128 57 5 0 10 11 10 25 0 16 6 25 15 25 8 0 15
4 15 9 0 8 56 36 72 36 4 0 16 7 26 16 10 8 23 14 30 11 6 -2 28 15 49 37 20
23 45 41 54 41 10 0 21 5 24 10 4 6 10 8 15 5 4 -2 18 4 31 14 13 10 43 28 66
39 23 12 48 30 55 39 19 26 91 73 111 73 9 0 17 7 17 15 0 27 -50 17 -114 -23
-34 -21 -104 -60 -156 -86 -52 -26 -113 -58 -135 -70 -22 -12 -69 -38 -105
-58 -36 -19 -137 -75 -225 -123 -88 -48 -198 -108 -245 -132 -47 -25 -89 -48
-95 -52 -10 -8 -109 -63 -205 -113 -30 -16 -62 -36 -71 -44 -8 -8 -25 -14 -36
-14 -11 0 -26 -6 -32 -14 -6 -7 -52 -34 -102 -60 -50 -26 -111 -60 -137 -76
-26 -16 -61 -36 -79 -44 -17 -8 -55 -30 -85 -48 -29 -19 -65 -38 -80 -41 -15
-4 -33 -13 -40 -21 -8 -7 -61 -38 -118 -68 -58 -30 -141 -74 -185 -97 -44 -24
-97 -53 -118 -63 -20 -11 -40 -24 -43 -29 -3 -5 -13 -9 -24 -9 -20 0 -32 -22
-24 -44 8 -21 -25 -66 -48 -66 -15 0 -18 4 -13 18 19 45 19 54 -1 43 -10 -6
-35 -17 -54 -26 -19 -8 -64 -32 -100 -54 -36 -22 -83 -49 -105 -60 -43 -22
-226 -123 -261 -143 -12 -7 -50 -28 -85 -47 -35 -18 -81 -45 -103 -58 -21 -14
-74 -43 -117 -64 -93 -47 -97 -68 -18 -94 47 -16 68 -45 32 -45 -15 0 -172
-82 -343 -181 -61 -35 -86 -48 -207 -115 -27 -14 -61 -33 -76 -42 -24 -15 -29
-15 -37 -2 -5 8 -10 33 -10 55 0 59 -10 85 -31 85 -13 0 -21 12 -29 40 -11 42
-31 51 -59 26 -22 -18 -79 -28 -83 -14 -3 8 -15 7 -41 -3 -28 -10 -40 -10 -48
-2 -9 9 0 17 35 34 28 13 51 32 57 45 7 19 16 24 46 24 l38 0 -33 17 c-30 15
-34 15 -53 -3 -20 -18 -20 -18 -13 27 4 24 13 51 20 60 19 21 17 29 -6 29 -10
0 -23 8 -29 17 -5 10 -13 15 -16 11 -4 -4 0 -14 9 -23 19 -19 19 -15 5 -54
-11 -30 -34 -42 -41 -20 -2 6 -20 12 -40 14 -21 2 -42 6 -47 10 -15 9 5 55 40
90 16 17 44 47 61 68 36 44 88 76 88 54 0 -7 -5 -18 -12 -25 -9 -9 -9 -12 -1
-12 14 0 63 62 63 79 0 7 -7 20 -16 28 -14 15 -19 15 -47 -2 -18 -10 -45 -29
-60 -42 -26 -21 -57 -30 -68 -18 -3 2 -1 41 3 86 10 87 5 106 -18 75 -13 -19
-14 -18 -14 12 0 17 -6 35 -14 39 -9 5 -16 32 -19 73 -3 36 -12 101 -21 145
-9 44 -18 97 -22 119 -5 35 -6 36 -19 20 -12 -17 -17 -17 -48 -6 -19 7 -41 10
-50 6 -9 -3 -18 1 -21 13 -4 10 -22 29 -42 43 -19 14 -40 34 -45 45 -5 11 -16
31 -24 44 -15 26 -12 41 9 41 16 0 146 -100 146 -112 0 -5 4 -6 10 -3 15 9
-16 62 -48 82 -15 9 -36 24 -47 33 -11 10 -50 25 -87 35 -40 11 -76 27 -89 41
-12 13 -29 24 -36 24 -8 0 -19 4 -26 10 -64 52 -76 60 -82 50 -7 -11 -85 60
-85 76 0 15 -117 124 -133 124 -15 0 -77 66 -77 82 0 4 -5 8 -12 8 -6 0 -19 6
-27 14 -22 19 -110 43 -211 56 -85 11 -187 55 -220 95 -9 11 -22 14 -37 10
-20 -5 -23 -2 -23 20 0 37 -17 65 -40 65 -11 0 -20 5 -20 10 0 6 -9 10 -19 10
-11 0 -23 -4 -26 -10 -16 -27 -35 11 -54 110 -5 25 -17 72 -26 105 -9 33 -28
105 -41 160 -13 55 -28 114 -33 130 -5 17 -12 46 -16 65 -4 19 -11 40 -15 45
-4 6 -10 24 -13 40 -2 17 -14 66 -26 110 -12 44 -28 105 -36 135 -7 30 -27
109 -45 175 -17 66 -42 165 -56 220 -25 103 -29 118 -44 170 -9 31 -41 153
-105 400 -20 77 -43 165 -51 195 -8 30 -19 73 -24 95 -7 34 -44 181 -95 370
-7 28 -22 88 -34 135 -12 47 -28 108 -36 135 -18 62 -36 129 -45 175 -4 19
-17 71 -30 115 -21 78 -68 256 -95 365 -7 30 -24 98 -38 150 -14 52 -59 228
-101 390 -42 162 -82 314 -88 338 l-12 42 -681 0 c-374 0 -686 -4 -694 -9z
m459 -1338 c0 -7 -4 -13 -10 -13 -13 0 -30 34 -30 62 0 22 1 21 20 -7 11 -16
20 -36 20 -42z m57 -170 c24 -50 26 -83 3 -83 -5 0 -10 12 -10 26 0 14 -9 38
-19 53 -19 26 -25 55 -21 101 2 22 3 21 12 -10 5 -19 21 -59 35 -87z m103 97
c0 -5 -4 -10 -10 -10 -5 0 -10 5 -10 10 0 6 5 10 10 10 6 0 10 -4 10 -10z
m-30 -41 c0 -11 -4 -17 -10 -14 -5 3 -10 13 -10 21 0 8 5 14 10 14 6 0 10 -9
10 -21z m80 -44 c7 -25 17 -48 21 -51 11 -6 12 -24 1 -24 -9 0 -52 89 -52 108
0 28 18 9 30 -33z m7 -507 c16 -21 23 -62 13 -78 -7 -10 -10 -11 -10 -2 0 7
-11 17 -24 22 -29 10 -41 57 -17 63 27 8 28 7 38 -5z m154 -542 c5 3 9 -5 9
-17 0 -18 -2 -19 -15 -9 -8 7 -15 20 -14 29 0 10 2 12 6 3 2 -6 9 -10 14 -6z
m126 -378 c-3 -8 -6 -5 -6 6 -1 11 2 17 5 13 3 -3 4 -12 1 -19z m181 -9 c2
-12 -12 -18 -63 -25 -36 -6 -68 -7 -71 -2 -9 15 7 28 34 28 15 0 34 5 42 10
21 14 54 8 58 -11z m-178 -58 c0 -20 -5 -43 -10 -51 -9 -13 -11 -13 -20 0 -11
16 -14 83 -4 93 15 15 34 -8 34 -42z m59 -146 c14 -29 21 -96 11 -90 -5 3 -12
22 -15 43 -3 20 -10 45 -16 54 -11 21 -12 72 -1 82 4 4 8 -9 10 -31 1 -21 7
-47 11 -58z m-69 30 c0 -9 -9 -15 -21 -15 -18 0 -19 2 -9 15 7 8 16 15 21 15
5 0 9 -7 9 -15z m134 -278 c5 -37 13 -67 18 -67 4 0 8 -25 8 -56 0 -40 -3 -54
-12 -51 -7 2 -13 13 -13 24 -1 11 -9 28 -18 38 -12 11 -14 21 -8 29 5 6 5 32
1 61 -13 73 -12 97 3 93 7 -3 16 -34 21 -71z m117 46 c15 -40 4 -52 -14 -16
-20 37 -21 43 -7 43 6 0 15 -12 21 -27z m49 -124 c0 -23 -11 -30 -27 -18 -7 6
-13 28 -13 48 l0 36 20 -25 c11 -14 20 -32 20 -41z m28 -61 c7 -7 12 -23 12
-36 0 -13 4 -31 9 -41 6 -10 7 -27 4 -39 -7 -28 -43 -30 -43 -3 0 10 -7 35
-15 56 -24 55 -2 98 33 63z m-148 -100 c0 -5 -4 -8 -10 -8 -5 0 -10 10 -10 23
0 18 2 19 10 7 5 -8 10 -18 10 -22z m256 -175 c-10 -10 -19 5 -10 18 6 11 8
11 12 0 2 -7 1 -15 -2 -18z m34 -84 c0 -11 -4 -17 -10 -14 -5 3 -10 13 -10 21
0 8 5 14 10 14 6 0 10 -9 10 -21z m-106 -318 c-3 -3 -14 5 -24 19 -14 19 -16
29 -8 44 10 19 12 17 25 -18 7 -22 11 -42 7 -45z m66 -126 c0 -8 -4 -15 -10
-15 -5 0 -10 7 -10 15 0 8 5 15 10 15 6 0 10 -7 10 -15z m1297 -161 c7 -18
-17 -38 -31 -24 -11 11 -1 40 14 40 6 0 13 -7 17 -16z m-1317 -14 c0 -5 -4
-10 -10 -10 -5 0 -10 5 -10 10 0 6 5 10 10 10 6 0 10 -4 10 -10z m-366 -29 c3
-4 3 -11 0 -14 -8 -8 -34 3 -34 14 0 11 27 12 34 0z m-274 -126 c0 -24 -5 -35
-15 -35 -15 0 -22 50 -8 63 15 15 23 5 23 -28z m2225 25 c3 -5 15 -10 26 -10
10 0 19 -7 19 -15 0 -8 -7 -15 -15 -15 -16 0 -55 30 -55 42 0 11 18 10 25 -2z
m-2353 -92 c-6 -6 -16 -7 -22 -3 -9 6 -9 9 1 16 17 10 34 0 21 -13z m-282 -39
c22 -12 40 -23 40 -26 0 -12 -32 -63 -39 -63 -5 0 -20 9 -34 20 -20 16 -30 18
-52 10 -36 -14 -65 -13 -65 2 0 21 63 78 87 78 12 0 41 -9 63 -21z m149 -81
c-16 -14 -25 -15 -45 -6 -25 12 -32 32 -14 43 6 3 10 15 10 25 0 10 8 23 17
29 15 8 21 3 35 -32 16 -41 16 -43 -3 -59z m1511 58 c0 -3 -4 -8 -10 -11 -5
-3 -10 -1 -10 4 0 6 5 11 10 11 6 0 10 -2 10 -4z m1280 -20 c0 -8 -4 -17 -9
-21 -12 -7 -24 12 -16 25 9 15 25 12 25 -4z m-3150 -215 c0 -12 -20 -25 -27
-18 -7 7 6 27 18 27 5 0 9 -4 9 -9z m-30 -41 c0 -5 -5 -10 -11 -10 -5 0 -7 5
-4 10 3 6 8 10 11 10 2 0 4 -4 4 -10z m3610 -4 c0 -2 3 -11 6 -20 4 -12 0 -16
-15 -16 -14 0 -21 6 -21 20 0 11 7 20 15 20 8 0 15 -2 15 -4z m3060 -26 c0
-10 -31 -23 -38 -15 -8 7 19 35 29 29 5 -3 9 -9 9 -14z m-2885 -239 c6 -21 -3
-51 -16 -51 -5 0 -9 9 -9 19 0 11 -3 26 -6 35 -4 10 -1 16 9 16 9 0 18 -8 22
-19z m58 -54 c6 -15 -22 -87 -33 -87 -13 0 -9 84 4 92 16 11 23 10 29 -5z m31
-156 c-10 -34 -22 -61 -27 -61 -8 0 -1 94 10 134 5 16 7 17 20 3 14 -14 14
-22 -3 -76z m37 -3 c5 -56 -15 -108 -33 -90 -10 10 12 102 24 102 4 0 8 -6 9
-12z m-4297 -14 c9 -3 16 -15 16 -25 0 -11 7 -22 15 -25 17 -7 21 -64 5 -64
-5 0 -10 11 -10 25 0 14 -4 25 -10 25 -5 0 -10 -12 -10 -27 0 -31 -35 -73 -62
-73 -10 0 -36 -11 -57 -24 -21 -14 -42 -22 -45 -19 -19 20 4 123 28 123 6 0
17 9 24 20 9 15 24 20 55 21 23 1 34 3 25 6 -21 5 -24 29 -5 36 6 3 13 6 14 6
1 1 8 -2 17 -5z m4226 -74 c0 -5 -5 -10 -11 -10 -5 0 -7 5 -4 10 3 6 8 10 11
10 2 0 4 -4 4 -10z m2280 -40 c0 -5 -8 -10 -17 -10 -15 0 -16 2 -3 10 19 12
20 12 20 0z m-2250 -90 c0 -5 -4 -10 -10 -10 -5 0 -10 5 -10 10 0 6 5 10 10
10 6 0 10 -4 10 -10z m86 -15 c4 -9 0 -30 -7 -48 -7 -17 -14 -38 -16 -46 -2
-18 -21 -36 -29 -29 -3 4 -1 15 5 26 6 12 11 38 11 60 0 21 3 42 7 45 11 11
23 8 29 -8z m-2626 -70 c0 -8 -21 -28 -47 -45 -47 -29 -83 -38 -83 -22 0 12
57 52 75 52 9 0 18 7 21 15 8 19 34 19 34 0z m2550 1 c0 -8 -4 -18 -10 -21 -5
-3 -10 3 -10 14 0 12 5 21 10 21 6 0 10 -6 10 -14z m1346 -91 c-11 -8 -29 -15
-40 -15 -20 0 -20 0 0 15 10 8 28 14 39 14 20 0 20 0 1 -14z m-4066 -55 c0 -5
-2 -10 -4 -10 -3 0 -8 5 -11 10 -3 6 -1 10 4 10 6 0 11 -4 11 -10z m2736 -137
c-10 -10 -19 5 -10 18 6 11 8 11 12 0 2 -7 1 -15 -2 -18z m88 12 c3 -8 15 -15
26 -15 23 0 26 -10 8 -28 -16 -16 -28 -15 -28 3 0 8 -8 14 -17 13 -39 -3 -53
3 -53 22 0 15 7 20 29 20 16 0 31 -6 35 -15z m-57 -60 c-2 -5 -19 -10 -37 -10
-18 0 -35 5 -37 10 -2 6 14 10 37 10 23 0 39 -4 37 -10z m283 -82 c-1 -5 -7
-19 -14 -32 -13 -24 -14 -24 -24 -4 -8 14 -8 23 0 31 13 13 38 16 38 5z m-245
-13 c3 -5 1 -10 -4 -10 -17 0 -13 -20 5 -27 9 -3 29 2 44 11 41 24 48 2 11
-34 -17 -17 -40 -30 -54 -30 -29 0 -57 37 -57 75 0 20 5 25 24 25 14 0 28 -4
31 -10z m139 -18 c2 -4 1 -14 -4 -22 -7 -11 -12 -12 -21 -3 -6 6 -8 16 -5 22
8 13 23 14 30 3z m966 -2 c24 -15 -38 -73 -75 -68 l-27 3 36 38 c40 40 43 42
66 27z m-963 -63 c-4 -14 -77 -20 -77 -6 0 5 11 9 24 9 14 0 28 5 31 10 8 13
27 2 22 -13z m131 11 c17 -17 15 -28 -5 -28 -16 0 -16 -2 -3 -11 12 -8 10 -9
-8 -4 -24 7 -43 -7 -56 -40 -5 -12 -10 -15 -13 -8 -4 11 19 65 39 91 13 15 31
15 46 0z m-3641 -4 c-3 -3 -12 -4 -19 -1 -8 3 -5 6 6 6 11 1 17 -2 13 -5z
m4298 -54 c-9 -15 -95 -63 -114 -65 -10 0 -33 -11 -53 -23 -19 -12 -41 -22
-47 -22 -6 0 -19 -4 -29 -10 -29 -16 -208 -80 -244 -86 -29 -6 -31 -5 -18 8 8
8 40 22 70 33 30 10 72 26 92 37 21 10 48 18 62 18 14 0 27 4 30 9 3 4 34 18
68 31 35 12 71 29 80 37 15 14 82 42 101 43 5 0 5 -4 2 -10z m-665 -49 c0 -18
-26 -41 -62 -54 -12 -4 -15 -2 -11 9 3 8 16 17 29 20 13 3 21 10 18 15 -6 11
4 29 17 29 5 0 9 -8 9 -19z m-3990 -730 c0 -6 -4 -13 -10 -16 -5 -3 -10 1 -10
9 0 9 5 16 10 16 6 0 10 -4 10 -9z m3030 -85 c0 -3 -4 -8 -10 -11 -5 -3 -10
-1 -10 4 0 6 5 11 10 11 6 0 10 -2 10 -4z m-3090 -196 c0 -5 -4 -10 -10 -10
-5 0 -10 5 -10 10 0 6 5 10 10 10 6 0 10 -4 10 -10z m17 -12 c-3 -8 -6 -5 -6
6 -1 11 2 17 5 13 3 -3 4 -12 1 -19z m-167 -1412 c0 -8 -4 -18 -10 -21 -5 -3
-10 3 -10 14 0 12 5 21 10 21 6 0 10 -6 10 -14z m7980 -41 c0 -2 -10 -10 -22
-16 -21 -11 -22 -11 -9 4 13 16 31 23 31 12z m-124 -83 c-11 -17 -183 -132
-278 -185 -79 -44 -53 -16 38 42 47 30 91 59 97 66 18 18 141 94 145 90 2 -2
1 -8 -2 -13z m-8139 -15 c-3 -8 -18 -21 -34 -29 -114 -59 -230 -121 -238 -129
-5 -5 -19 -9 -32 -9 -13 0 -23 -4 -23 -9 0 -5 -8 -11 -17 -14 -10 -4 -45 -21
-79 -40 -34 -19 -72 -37 -85 -40 -23 -6 -23 -5 -5 8 11 8 26 15 33 15 7 0 13
4 13 10 0 5 11 12 25 16 14 3 25 9 25 13 0 4 20 15 45 26 25 11 45 24 45 28 0
4 14 13 30 18 17 6 30 15 30 20 0 5 11 9 24 9 13 0 26 4 28 8 6 15 209 124
217 117 2 -2 1 -11 -2 -18z m139 -4 c-10 -10 -19 5 -10 18 6 11 8 11 12 0 2
-7 1 -15 -2 -18z m154 12 c11 -13 10 -14 -4 -9 -9 3 -16 10 -16 15 0 13 6 11
20 -6z m-851 -308 c-14 -7 -32 -17 -40 -23 -23 -17 -69 -34 -69 -25 0 10 100
60 120 60 8 0 3 -6 -11 -12z m9331 -91 c0 -3 -4 -8 -10 -11 -5 -3 -10 -1 -10
4 0 6 5 11 10 11 6 0 10 -2 10 -4z m-150 -36 c0 -5 -8 -18 -19 -29 -10 -10
-24 -41 -32 -69 -12 -48 -15 -51 -40 -48 -16 2 -40 11 -54 20 l-26 17 78 59
c80 60 93 67 93 50z m140 -12 c0 -6 -3 -8 -7 -5 -3 4 -12 2 -20 -5 -11 -8 -12
-7 -7 6 7 18 34 22 34 4z m-10150 -54 c-16 -19 -36 -29 -74 -38 -24 -6 -26 -5
-15 6 11 11 73 41 98 47 2 1 -2 -6 -9 -15z m2065 -104 c3 -5 -1 -10 -9 -10 -9
0 -16 5 -16 10 0 6 4 10 9 10 6 0 13 -4 16 -10z m-368 -442 c-3 -8 -6 -5 -6 6
-1 11 2 17 5 13 3 -3 4 -12 1 -19z m753 -127 c0 -5 -6 -14 -14 -20 -10 -9 -15
-8 -19 3 -3 8 -3 17 0 20 9 9 33 7 33 -3z m160 -91 c0 -5 -2 -10 -4 -10 -3 0
-8 5 -11 10 -3 6 -1 10 4 10 6 0 11 -4 11 -10z m-496 -71 c-3 -6 -7 -9 -8 -7
-1 2 -8 12 -16 22 -14 18 -14 19 8 7 12 -7 20 -17 16 -22z m746 -19 c0 -5 -6
-10 -14 -10 -8 0 -18 5 -21 10 -3 6 3 10 14 10 12 0 21 -4 21 -10z m-560 -50
c0 -11 -4 -20 -9 -20 -14 0 -23 18 -16 30 10 17 25 11 25 -10z m-150 -10 c0
-5 -4 -10 -10 -10 -5 0 -10 5 -10 10 0 6 5 10 10 10 6 0 10 -4 10 -10z m194
-29 c3 -5 -1 -15 -10 -22 -13 -10 -17 -10 -24 1 -5 8 -6 18 -4 22 7 11 31 10
38 -1z m-854 -11 c0 -5 -4 -10 -9 -10 -6 0 -13 5 -16 10 -3 6 1 10 9 10 9 0
16 -4 16 -10z m-219 -63 c-8 -8 -11 -5 -11 9 0 27 14 41 18 19 2 -9 -1 -22 -7
-28z m-181 14 c0 -10 -30 -24 -37 -17 -3 3 -2 9 2 15 8 13 35 15 35 2z m360
-16 c0 -8 -4 -15 -10 -15 -5 0 -10 7 -10 15 0 8 5 15 10 15 6 0 10 -7 10 -15z
m-395 -25 c-3 -5 -11 -10 -16 -10 -6 0 -7 5 -4 10 3 6 11 10 16 10 6 0 7 -4 4
-10z m1235 -25 c8 -9 6 -14 -5 -19 -17 -6 -45 14 -45 32 0 13 36 3 50 -13z
m-1278 -7 c-7 -7 -12 -8 -12 -2 0 14 12 26 19 19 2 -3 -1 -11 -7 -17z m2945 0
c-3 -8 -6 -5 -6 6 -1 11 2 17 5 13 3 -3 4 -12 1 -19z m210 -10 c-3 -8 -6 -5
-6 6 -1 11 2 17 5 13 3 -3 4 -12 1 -19z m-1637 -113 c7 -9 21 -13 31 -10 20 7
26 -9 9 -20 -6 -4 -9 -14 -8 -23 2 -12 -5 -18 -25 -20 -31 -4 -46 21 -29 48 8
13 7 21 -1 29 -7 7 -8 11 0 11 6 0 16 -7 23 -15z m2012 -167 c-17 -38 -42 -55
-62 -43 -16 10 -12 31 13 62 19 22 23 37 19 69 -2 24 2 52 9 65 12 22 14 19
26 -46 11 -62 10 -74 -5 -107z m-1902 46 c0 -8 -5 -12 -10 -9 -6 4 -8 11 -5
16 9 14 15 11 15 -7z m1848 4 c-6 -18 -28 -21 -28 -4 0 9 7 16 16 16 9 0 14
-5 12 -12z m-159 -167 c16 -10 6 -31 -15 -31 -8 0 -14 9 -14 20 0 22 7 25 29
11z m-4295 -187 c9 -3 16 -15 16 -25 0 -24 -26 -15 -33 12 -6 21 -5 22 17 13z
m3266 -24 c0 -5 -4 -10 -10 -10 -5 0 -10 5 -10 10 0 6 5 10 10 10 6 0 10 -4
10 -10z m595 -460 c3 -5 2 -10 -4 -10 -5 0 -13 5 -16 10 -3 6 -2 10 4 10 5 0
13 -4 16 -10z m4725 -885 c13 -15 7 -45 -9 -45 -5 0 -11 14 -13 30 -5 33 3 38
22 15z m940 -60 c0 -8 -9 -15 -20 -15 -22 0 -27 15 -7 23 21 9 27 7 27 -8z
m-1130 -165 c0 -5 -2 -10 -4 -10 -3 0 -8 5 -11 10 -3 6 -1 10 4 10 6 0 11 -4
11 -10z m370 -40 c0 -15 -50 -60 -66 -60 -22 0 -16 19 14 45 28 26 52 32 52
15z m1180 -14 c0 -8 -4 -18 -10 -21 -5 -3 -10 3 -10 14 0 12 5 21 10 21 6 0
10 -6 10 -14z m-270 -35 c0 -6 -4 -13 -10 -16 -5 -3 -10 1 -10 9 0 9 5 16 10
16 6 0 10 -4 10 -9z m455 -21 c8 -13 -5 -13 -25 0 -13 8 -13 10 2 10 9 0 20
-4 23 -10z m-325 -50 c6 0 9 -4 6 -8 -2 -4 11 -18 30 -31 19 -13 34 -27 34
-32 0 -5 6 -9 14 -9 13 0 26 -20 26 -41 0 -5 -7 -9 -15 -9 -8 0 -15 -4 -15 -9
0 -5 7 -16 15 -25 24 -24 18 -53 -14 -69 -21 -11 -32 -12 -40 -4 -8 8 -11 6
-11 -6 0 -9 -10 -19 -23 -22 -12 -3 -28 -19 -36 -36 -13 -31 -30 -36 -62 -19
-27 15 -25 44 3 37 40 -11 57 8 51 55 -6 43 -6 43 15 25 19 -18 20 -18 36 4
17 24 18 24 33 -5 10 -18 11 -18 23 4 9 17 10 25 2 28 -6 2 -9 9 -6 17 3 8 -4
16 -16 20 -14 4 -19 12 -16 22 5 11 1 14 -13 10 -14 -3 -21 2 -25 17 -3 11 -1
23 4 24 24 8 7 18 -27 15 -21 -2 -32 0 -25 3 19 9 14 34 -7 34 -29 0 -36 18
-16 41 18 18 18 18 41 -6 13 -14 28 -25 34 -25z m-370 10 c0 -5 -13 -16 -29
-25 -16 -8 -31 -20 -34 -27 -3 -10 -8 -10 -17 -2 -9 9 -5 18 17 38 28 26 63
35 63 16z m270 -44 c0 -14 5 -28 10 -31 6 -3 10 -18 10 -31 0 -19 -8 -29 -30
-37 -16 -6 -34 -23 -41 -39 -10 -23 -14 -26 -31 -17 -20 11 -20 11 3 35 12 13
28 24 35 24 7 0 17 14 23 31 15 43 14 49 -8 49 -25 0 -38 20 -20 31 27 17 49
10 49 -15z m-523 -28 c-3 -8 -6 -5 -6 6 -1 11 2 17 5 13 3 -3 4 -12 1 -19z
m58 2 c3 -5 -1 -10 -10 -10 -9 0 -13 5 -10 10 3 6 8 10 10 10 2 0 7 -4 10 -10z
m395 1 c0 -6 -4 -13 -10 -16 -5 -3 -10 1 -10 9 0 9 5 16 10 16 6 0 10 -4 10
-9z m380 -20 c0 -16 -71 -72 -82 -65 -7 4 -4 13 9 23 11 9 23 24 26 34 6 17
47 25 47 8z m-1150 -11 c0 -5 -2 -10 -4 -10 -3 0 -8 5 -11 10 -3 6 -1 10 4 10
6 0 11 -4 11 -10z m363 -10 c-3 -11 -9 -20 -14 -20 -11 0 -11 3 -3 24 9 23 23
20 17 -4z m875 -9 c10 -6 3 -13 -24 -26 -21 -10 -45 -26 -54 -36 -9 -12 -20
-16 -28 -11 -10 7 -3 18 25 45 38 37 57 44 81 28z m-768 -29 c0 -10 6 -24 12
-30 10 -10 7 -12 -12 -9 -26 4 -35 19 -26 42 8 21 26 19 26 -3z m260 -22 c0
-5 -2 -10 -4 -10 -3 0 -8 5 -11 10 -3 6 -1 10 4 10 6 0 11 -4 11 -10z m555 -8
c0 -18 -20 -15 -23 4 -3 10 1 15 10 12 7 -3 13 -10 13 -16z m-668 -17 c7 -20
0 -27 -20 -19 -25 9 -30 34 -6 34 11 0 22 -7 26 -15z m27 -38 c2 -15 0 -27 -5
-27 -5 0 -9 14 -9 32 0 37 7 34 14 -5z m96 2 c0 -11 -7 -19 -17 -19 -15 0 -16
-2 -3 -10 12 -8 10 -10 -8 -10 -13 0 -22 3 -20 8 23 47 32 60 40 56 4 -3 8
-14 8 -25z m-136 -5 c23 -9 20 -24 -4 -24 -11 0 -20 7 -20 15 0 17 2 18 24 9z
m471 -79 c6 -22 13 -45 17 -51 5 -7 0 -14 -12 -17 -11 -3 -20 -1 -20 4 0 10
-35 63 -57 87 -11 11 -13 11 -13 -2 0 -9 -5 -16 -10 -16 -7 0 -7 6 -1 18 6 12
21 17 48 17 36 0 39 -2 48 -40z m-400 -23 c-36 -5 -45 6 -20 24 18 13 21 13
33 -3 12 -16 10 -18 -13 -21z m62 -3 c4 -16 8 -18 14 -7 7 10 10 8 15 -9 4
-13 11 -20 17 -16 6 3 7 1 3 -5 -10 -16 -33 -15 -39 1 -3 6 -6 2 -6 -10 -1
-13 -5 -23 -9 -23 -5 0 -7 15 -6 32 1 18 -2 39 -8 45 -7 9 -7 13 2 13 6 0 14
-9 17 -21z m-87 -19 c0 -5 -4 -10 -10 -10 -5 0 -10 5 -10 10 0 6 5 10 10 10 6
0 10 -4 10 -10z m-110 -40 c0 -5 -2 -10 -4 -10 -3 0 -8 5 -11 10 -3 6 -1 10 4
10 6 0 11 -4 11 -10z m320 -4 c0 -2 -3 -11 -6 -20 -9 -23 -34 -20 -34 4 0 13
7 20 20 20 11 0 20 -2 20 -4z m-379 -36 c11 6 23 9 27 6 4 -3 14 -1 22 4 9 5
19 5 26 -1 8 -6 34 -6 75 1 85 13 99 13 99 -5 0 -8 7 -15 15 -15 7 0 18 -8 24
-17 8 -14 12 -15 25 -4 9 8 16 9 16 3 0 -6 3 -17 6 -26 4 -10 -1 -18 -12 -22
-11 -4 -28 -15 -39 -25 -18 -16 -24 -16 -60 -3 -39 13 -75 11 -75 -6 0 -5 -3
-15 -6 -24 -4 -11 -1 -16 11 -16 24 0 15 -44 -10 -49 -11 -2 -25 -10 -31 -19
-10 -14 -12 -13 -18 6 -4 12 -5 30 -2 40 4 10 0 27 -8 38 -14 19 -15 19 -40
-5 -24 -23 -27 -23 -44 -8 -10 10 -22 14 -25 10 -4 -3 -7 -1 -7 5 0 7 -10 12
-21 12 -19 0 -21 4 -15 30 4 22 2 30 -9 30 -7 0 -17 -4 -20 -10 -10 -16 -35
-12 -35 6 0 9 17 33 37 55 37 38 37 39 55 19 15 -16 23 -18 39 -10z m674 -70
c-3 -5 -10 -10 -16 -10 -5 0 -9 5 -9 10 0 6 7 10 16 10 8 0 12 -4 9 -10z m125
-31 c0 -3 -9 -9 -19 -12 -13 -3 -18 0 -15 7 5 13 34 18 34 5z m-370 -9 c0 -5
-7 -10 -16 -10 -8 0 -12 5 -9 10 3 6 10 10 16 10 5 0 9 -4 9 -10z m395 -40
c-3 -5 -11 -10 -16 -10 -6 0 -7 5 -4 10 3 6 11 10 16 10 6 0 7 -4 4 -10z m-41
-29 c3 -5 -5 -11 -19 -13 -26 -5 -35 6 -12 15 19 8 25 8 31 -2z m-304 -15 c0
-3 -4 -8 -10 -11 -5 -3 -10 -1 -10 4 0 6 5 11 10 11 6 0 10 -2 10 -4z m210
-51 c0 -8 -4 -15 -10 -15 -5 0 -7 7 -4 15 4 8 8 15 10 15 2 0 4 -7 4 -15z
m-461 -6 c36 -13 41 -38 11 -57 -18 -11 -20 -10 -20 14 0 15 -8 33 -17 40 -22
16 -15 17 26 3z m-135 -35 c9 -22 8 -24 -9 -24 -8 0 -15 9 -15 20 0 24 15 27
24 4z m629 -11 c3 -5 -4 -24 -14 -43 l-19 -35 0 36 c0 20 3 39 7 42 9 9 21 9
26 0z m47 -113 c0 -5 -4 -10 -10 -10 -5 0 -10 5 -10 10 0 6 5 10 10 10 6 0 10
-4 10 -10z m-160 -136 c0 -12 7 -27 15 -34 21 -17 19 -29 -7 -51 -41 -34 -61
-22 -32 19 28 41 6 68 -50 62 -11 -1 -17 3 -14 12 6 18 39 23 48 8 5 -9 10 -6
15 10 6 18 9 20 16 9 5 -8 9 -24 9 -35z m-186 7 c10 -11 28 -21 39 -23 34 -5
30 -31 -10 -56 -19 -12 -37 -21 -38 -20 -2 2 -6 23 -9 48 -3 25 -11 47 -16 48
-11 4 -4 22 9 22 4 0 16 -9 25 -19z m292 -128 c18 -24 17 -30 -6 -36 -17 -4
-20 0 -20 24 0 33 7 36 26 12z m-3066 -85 c0 -13 -4 -29 -9 -37 -7 -11 -11
-10 -20 5 -8 16 -10 11 -11 -28 0 -27 -4 -48 -10 -48 -5 0 -10 11 -10 25 0 18
-4 23 -15 19 -10 -4 -15 0 -15 11 0 9 4 14 8 11 4 -2 18 11 31 30 27 39 51 45
51 12z m2937 -15 c4 -12 -55 -29 -64 -19 -9 9 28 34 46 31 8 -1 17 -7 18 -12z
m-2893 -110 c8 -21 -10 -41 -24 -27 -11 11 -3 44 10 44 4 0 11 -8 14 -17z
m2874 -17 c7 -19 21 -36 30 -39 13 -3 11 -7 -12 -17 -24 -12 -30 -12 -40 1 -6
9 -17 14 -23 12 -16 -6 -17 31 -3 58 16 29 35 23 48 -15z m-2988 14 c0 -5 -4
-10 -10 -10 -5 0 -10 5 -10 10 0 6 5 10 10 10 6 0 10 -4 10 -10z m70 -130 c0
-5 -2 -10 -4 -10 -3 0 -8 5 -11 10 -3 6 -1 10 4 10 6 0 11 -4 11 -10z m63 -46
c3 -3 3 -13 0 -21 -5 -12 -7 -12 -14 -1 -15 23 -4 40 14 22z m2896 -56 c-16
-14 -39 -29 -51 -32 -13 -3 -17 -3 -10 0 10 5 9 9 -4 18 -22 17 -8 39 20 32
25 -6 40 2 50 29 l8 20 8 -20 c6 -15 1 -27 -21 -47z m95 11 c-6 -11 -24 -2
-24 11 0 5 7 7 15 4 8 -4 12 -10 9 -15z m-45 -43 c-9 -8 -10 -7 -5 7 3 10 7
24 7 30 1 7 3 4 6 -7 3 -10 -1 -23 -8 -30z m-35 -131 c15 -23 15 -26 -8 -51
-15 -18 -29 -25 -39 -21 -21 8 -22 21 -2 41 8 8 15 24 15 35 0 28 14 26 34 -4z
m78 -57 c1 -13 2 -31 2 -40 1 -10 7 -23 14 -30 20 -20 15 -58 -8 -58 -17 0
-19 5 -15 29 5 27 -13 48 -38 42 -14 -3 -20 30 -9 55 15 31 51 33 54 2z
m-2292 -320 c0 -4 -7 -8 -15 -8 -10 0 -15 10 -15 28 1 26 1 26 15 8 8 -11 15
-23 15 -28z m2243 -9 c-6 -6 -19 -9 -29 -6 -16 4 -15 5 4 6 12 0 22 6 22 13 0
6 3 8 7 5 4 -4 2 -12 -4 -18z m-2118 -19 c17 -19 17 -21 2 -38 -10 -10 -17
-23 -17 -29 0 -5 -11 -20 -24 -32 -17 -16 -27 -39 -31 -73 -8 -53 -19 -56 -22
-5 -3 71 -16 148 -23 136 -4 -6 -13 -8 -19 -5 -14 9 -15 56 -1 56 6 0 10 -4
10 -10 0 -5 6 -10 14 -10 8 0 16 -4 18 -9 2 -5 15 -7 30 -4 15 3 25 9 22 14
-6 10 3 29 15 29 4 0 16 -9 26 -20z m315 -207 c0 -20 -16 -8 -23 17 -4 17 -3
19 9 9 8 -6 14 -18 14 -26z m223 -78 c-22 -16 -27 -13 -18 15 5 17 9 19 21 9
12 -10 12 -13 -3 -24z m107 -55 c0 -5 -8 -10 -17 -10 -15 0 -16 2 -3 10 19 12
20 12 20 0z m300 -130 c0 -5 -4 -10 -10 -10 -5 0 -10 5 -10 10 0 6 5 10 10 10
6 0 10 -4 10 -10z m685 -138 c-22 -20 -55 -24 -48 -5 5 12 23 19 52 22 11 1 9
-4 -4 -17z m-85 -2 c0 -5 -7 -10 -15 -10 -8 0 -15 5 -15 10 0 6 7 10 15 10 8
0 15 -4 15 -10z m15 -50 c-3 -5 -12 -10 -18 -10 -7 0 -6 4 3 10 19 12 23 12
15 0z m-1445 -26 c0 -2 -7 -4 -15 -4 -8 0 -15 4 -15 10 0 5 7 7 15 4 8 -4 15
-8 15 -10z m0 -34 c0 -5 -2 -10 -4 -10 -3 0 -8 5 -11 10 -3 6 -1 10 4 10 6 0
11 -4 11 -10z m327 -267 c7 -19 -29 -53 -58 -53 -10 0 -19 2 -19 4 0 2 -3 11
-6 19 -4 11 4 17 25 22 17 4 31 11 31 16 0 15 20 10 27 -8z m137 -69 c7 -19
-3 -64 -14 -64 -5 0 -15 -3 -24 -6 -20 -8 -20 7 -2 51 16 38 30 44 40 19z
m194 -12 c2 -7 -2 -10 -12 -6 -9 3 -16 11 -16 16 0 13 23 5 28 -10z m-138 -22
c0 -5 -4 -10 -9 -10 -6 0 -13 5 -16 10 -3 6 1 10 9 10 9 0 16 -4 16 -10z m302
-64 c7 -10 -15 -36 -31 -36 -12 0 -43 55 -35 63 7 7 56 -14 66 -27z m-246 7
c20 -27 16 -38 -6 -18 -20 18 -26 35 -14 35 4 0 13 -8 20 -17z m338 -49 c21
-20 20 -34 0 -34 -16 0 -43 27 -44 43 0 13 28 7 44 -9z m40 -50 c3 -8 2 -12
-4 -9 -6 3 -10 10 -10 16 0 14 7 11 14 -7z m-385 -50 c1 -10 10 -27 18 -36 13
-15 13 -16 -4 -12 -20 5 -55 59 -45 68 10 11 27 0 31 -20z m367 -55 c29 -31
30 -39 3 -70 -11 -13 -23 -36 -26 -51 -5 -25 -10 -28 -48 -28 -24 0 -50 -3
-59 -6 -12 -5 -15 1 -15 28 1 18 0 38 -1 43 -9 38 19 42 80 11 16 -8 32 -11
35 -6 3 4 -8 32 -23 63 -25 49 -26 57 -14 76 l15 21 14 -27 c8 -16 25 -39 39
-54z m-239 -65 c9 -8 21 -13 27 -11 8 3 11 -4 8 -23 -3 -21 -8 -27 -23 -23
-10 3 -19 9 -19 14 0 5 -6 6 -14 3 -21 -8 -29 12 -14 36 15 24 15 24 35 4z
m73 6 c0 -5 -4 -10 -10 -10 -5 0 -10 5 -10 10 0 6 5 10 10 10 6 0 10 -4 10
-10z m154 -258 c-15 -52 -21 -62 -39 -62 -14 0 -25 8 -28 20 -4 17 -1 18 25
13 l30 -6 -7 42 c-5 28 -3 47 6 57 24 29 30 -2 13 -64z m-57 -4 c-3 -8 -6 -5
-6 6 -1 11 2 17 5 13 3 -3 4 -12 1 -19z m20 -10 c-3 -8 -6 -5 -6 6 -1 11 2 17
5 13 3 -3 4 -12 1 -19z m1162 -245 c1 -7 -6 -13 -14 -13 -15 0 -21 40 -8 54 7
7 21 -18 22 -41z m149 -17 c4 -17 -14 -46 -28 -46 -13 0 -18 36 -8 54 12 20
32 16 36 -8z m-973 -6 c3 -5 1 -10 -4 -10 -6 0 -11 5 -11 10 0 6 2 10 4 10 3
0 8 -4 11 -10z m848 -124 c-6 -66 -20 -97 -34 -74 -5 7 -17 14 -28 14 -11 1
-18 -3 -15 -8 3 -5 12 -7 19 -4 15 5 28 -57 19 -91 -9 -33 -20 -29 -49 17 -14
22 -32 40 -41 40 -17 0 -13 22 12 72 8 15 14 36 14 47 0 10 9 40 20 66 l20 47
34 -32 c33 -32 34 -34 29 -94z m-118 -192 c17 -13 18 -16 5 -24 -20 -13 -26
-12 -40 5 -11 14 -6 35 8 35 4 0 16 -7 27 -16z"/>
<path d="M10497 9683 c-4 -3 -7 -15 -7 -25 0 -11 -4 -16 -10 -13 -5 3 -10 1
-10 -4 0 -26 35 -4 42 27 6 21 -2 29 -15 15z"/>
<path d="M9947 5754 c-3 -6 -2 -24 2 -40 7 -25 10 -26 16 -11 8 20 -8 67 -18
51z"/>
<path d="M10612 18864 c5 -288 8 -338 21 -352 15 -14 17 -13 27 12 5 15 8 32
4 37 -3 5 -1 9 5 9 5 0 11 -5 13 -11 3 -8 10 -6 21 5 9 10 17 14 17 10 0 -5 5
-3 11 3 17 17 37 5 32 -20 -4 -22 -4 -22 16 2 20 22 21 34 21 332 l0 309 -96
0 -97 0 5 -336z"/>
<path d="M2261 18924 c0 -11 3 -14 6 -6 3 7 2 16 -1 19 -3 4 -6 -2 -5 -13z"/>
<path d="M10790 17855 c0 -9 -9 -15 -24 -15 -13 0 -29 -7 -36 -15 -7 -8 -22
-15 -34 -15 -11 0 -28 -5 -36 -10 -11 -7 -17 -5 -22 8 -4 9 -5 -180 -4 -420 2
-300 6 -441 14 -450 7 -8 7 -19 2 -28 -9 -14 -5 -229 5 -238 3 -3 5 6 5 21 0
36 10 57 27 57 11 0 13 -7 9 -25 -4 -14 -2 -25 4 -25 5 0 10 -9 10 -19 0 -22
20 -32 49 -24 12 3 21 1 21 -6 0 -6 -5 -11 -12 -11 -7 0 -6 -5 4 -12 9 -7 18
-20 21 -28 3 -8 6 274 6 628 1 353 -1 642 -4 642 -3 0 -5 -7 -5 -15z m-105
-904 c3 -5 1 -12 -5 -16 -5 -3 -10 1 -10 9 0 18 6 21 15 7z"/>
<path d="M10688 17833 c6 -2 18 -2 25 0 6 3 1 5 -13 5 -14 0 -19 -2 -12 -5z"/>
<path d="M10661 14941 c-13 -11 -28 -22 -34 -24 -20 -7 -4 -15 33 -17 57 -3
60 -2 60 30 0 36 -25 40 -59 11z"/>
<path d="M2888 14663 c7 -3 16 -2 19 1 4 3 -2 6 -13 5 -11 0 -14 -3 -6 -6z"/>
<path d="M8378 13763 c7 -3 16 -2 19 1 4 3 -2 6 -13 5 -11 0 -14 -3 -6 -6z"/>
<path d="M3610 13265 c0 -8 2 -15 4 -15 2 0 6 7 10 15 3 8 1 15 -4 15 -6 0
-10 -7 -10 -15z"/>
<path d="M6310 12990 c0 -5 5 -10 10 -10 6 0 10 5 10 10 0 6 -4 10 -10 10 -5
0 -10 -4 -10 -10z"/>
<path d="M3305 12319 c-23 -15 -42 -19 -80 -16 -46 4 -52 2 -84 -30 -18 -18
-46 -40 -60 -48 -23 -12 -24 -14 -8 -20 9 -4 17 -11 17 -16 0 -14 -22 -11 -41
6 -15 15 -17 12 -24 -31 -4 -28 -3 -50 4 -57 16 -16 64 9 79 41 14 31 54 53
74 40 7 -4 31 -8 53 -7 22 1 52 -2 68 -6 29 -8 37 -25 12 -25 -8 0 -15 -5 -15
-11 0 -15 50 -3 70 17 12 12 12 15 -4 27 -17 13 -17 14 -1 30 9 9 24 17 33 18
10 0 12 3 5 5 -8 4 -6 11 8 25 10 10 22 18 25 17 9 -4 27 33 19 40 -3 4 -10 0
-15 -8 -8 -13 -12 -11 -25 8 -20 28 -68 28 -110 1z"/>
<path d="M3570 12332 c0 -7 -11 -12 -25 -12 -16 0 -25 -6 -25 -15 0 -8 9 -15
20 -15 22 0 25 -7 11 -29 -6 -9 -4 -19 5 -29 11 -11 12 -17 3 -28 -16 -19 -39
-18 -39 2 0 13 -3 14 -13 5 -8 -6 -17 -8 -20 -5 -9 10 -77 -6 -77 -17 0 -12
60 -74 60 -62 0 4 4 3 8 -3 9 -15 52 0 52 18 0 14 75 50 84 40 15 -15 2 -39
-30 -57 -35 -19 -35 -19 -12 -28 13 -5 55 -10 94 -10 59 0 71 -3 70 -16 -1
-11 10 -17 36 -19 22 -2 47 -13 63 -28 15 -14 35 -24 45 -22 10 2 29 -7 42
-19 31 -29 121 -28 224 2 12 4 25 2 28 -4 11 -18 26 -13 26 8 0 11 4 22 9 26
12 7 11 46 -2 63 -6 7 -7 16 -3 20 4 4 13 -1 20 -11 7 -9 18 -17 24 -17 17 0
-5 42 -31 61 -24 17 -155 53 -229 64 -27 3 -48 10 -48 14 0 11 -147 54 -160
46 -5 -3 -10 0 -10 8 0 7 -6 14 -12 15 -7 1 -29 4 -48 7 -19 3 -50 8 -68 11
-17 3 -41 15 -52 26 -11 12 -20 16 -20 10z m-90 -151 c0 -12 -20 -25 -27 -18
-7 7 6 27 18 27 5 0 9 -4 9 -9z"/>
<path d="M4262 12153 c14 -29 28 -62 39 -89 12 -31 13 -31 32 -13 20 18 20 19
-6 45 -15 15 -27 30 -27 33 0 3 -9 12 -21 19 -12 8 -19 10 -17 5z"/>
<path d="M3335 11794 c-38 -8 -85 -15 -103 -15 -41 -1 -64 -38 -44 -70 17 -27
15 -39 -9 -39 -16 0 -20 5 -16 20 3 11 1 22 -3 25 -14 9 -22 -14 -15 -45 5
-22 12 -30 28 -30 16 0 18 -3 8 -9 -8 -5 -9 -11 -3 -15 6 -3 8 -15 5 -26 -4
-16 3 -24 36 -38 29 -12 39 -21 35 -32 -20 -49 -18 -52 20 -45 24 5 41 3 52
-6 13 -10 17 -10 24 2 10 15 113 21 338 19 133 -1 126 -5 137 63 6 36 8 38 33
32 15 -3 38 -14 51 -23 85 -61 122 -73 162 -51 16 8 25 7 39 -6 13 -12 24 -14
35 -8 15 9 16 11 1 26 -9 9 -32 21 -51 26 -20 5 -49 21 -66 35 -17 14 -39 26
-49 26 -10 0 -25 6 -32 13 -7 8 -31 17 -53 21 -157 27 -243 36 -330 35 -55 -1
-108 1 -118 6 -10 4 -36 5 -57 1 -46 -7 -50 2 -17 39 28 32 128 55 247 55 67
0 82 3 72 13 -19 18 -269 19 -357 1z m25 -67 c0 -16 -43 -46 -73 -51 -20 -3
-40 -6 -44 -7 -17 -3 -33 1 -33 9 0 9 88 36 108 33 6 -1 12 3 12 9 0 5 7 10
15 10 8 0 15 -2 15 -3z"/>
<path d="M3755 11770 c3 -5 22 -12 43 -16 47 -8 194 -78 217 -104 10 -11 28
-20 39 -20 32 0 66 -11 61 -20 -3 -4 6 -10 18 -12 17 -3 23 0 24 15 2 24 -34
56 -63 57 -12 0 -38 16 -57 35 -24 24 -44 35 -64 35 -17 0 -56 9 -89 20 -62
21 -139 27 -129 10z"/>
<path d="M1735 11665 c-5 -2 -22 -6 -37 -9 -35 -8 -66 -52 -49 -69 9 -9 14 -9
19 -1 4 7 20 12 36 12 18 0 33 7 39 18 10 18 11 17 17 -6 4 -16 14 -26 28 -28
27 -4 30 -46 6 -81 -15 -21 -15 -24 4 -41 16 -15 23 -16 43 -6 13 6 25 22 27
34 4 25 38 38 72 27 20 -6 20 -5 8 16 -20 34 -41 59 -51 59 -5 0 -26 13 -46
28 -35 27 -85 53 -99 51 -4 0 -11 -2 -17 -4z"/>
<path d="M1740 11556 c0 -2 7 -9 15 -16 12 -10 15 -10 15 4 0 9 -7 16 -15 16
-8 0 -15 -2 -15 -4z"/>
<path d="M5180 11500 c-14 -5 -42 -11 -63 -15 -26 -4 -41 -13 -48 -28 -5 -12
-16 -33 -24 -47 -22 -37 -15 -64 17 -68 15 -2 36 2 48 8 18 9 20 8 20 -15 0
-30 22 -41 102 -51 29 -4 58 -11 65 -16 6 -5 33 -13 60 -17 l48 -7 20 40 c11
23 27 42 36 44 14 3 78 -44 69 -50 -3 -2 -14 -8 -25 -14 -29 -16 -31 -48 -3
-60 20 -9 45 -10 118 -4 15 1 65 -9 124 -25 28 -8 29 -7 22 21 -4 16 -11 31
-16 34 -5 3 -11 17 -15 32 -8 32 -51 74 -85 81 -14 3 -88 24 -165 46 -119 35
-174 45 -264 50 -11 1 -11 4 -1 16 7 8 15 13 19 10 4 -2 15 4 23 14 15 18 14
19 -14 25 -35 7 -35 7 -68 -4z"/>
<path d="M3910 11490 c0 -5 9 -10 21 -10 11 0 17 5 14 10 -3 6 -13 10 -21 10
-8 0 -14 -4 -14 -10z"/>
<path d="M5575 11471 c3 -5 21 -15 39 -21 33 -11 109 -88 135 -138 10 -18 15
-20 31 -12 11 6 24 20 30 31 14 25 16 97 3 110 -5 5 -49 14 -99 19 -49 6 -102
12 -117 15 -15 3 -25 1 -22 -4z"/>
<path d="M2010 11420 c0 -11 -5 -19 -11 -17 -6 1 -19 -23 -29 -52 -16 -49 -17
-58 -4 -83 17 -33 44 -36 62 -8 7 11 18 20 25 20 19 0 10 92 -9 103 -8 4 -14
19 -14 32 0 14 -4 25 -10 25 -5 0 -10 -9 -10 -20z"/>
<path d="M2225 10960 c-7 -11 2 -30 13 -30 4 0 8 9 8 20 0 21 -11 26 -21 10z"/>
<path d="M2210 10864 c0 -14 3 -14 15 -4 8 7 15 14 15 16 0 2 -7 4 -15 4 -8 0
-15 -7 -15 -16z"/>
<path d="M2060 10849 c0 -6 -7 -26 -16 -44 -15 -33 -15 -35 12 -70 25 -33 53
-55 70 -55 12 0 -7 102 -27 141 -18 37 -39 52 -39 28z"/>
<path d="M2200 10795 c0 -9 5 -15 11 -13 6 2 11 8 11 13 0 5 -5 11 -11 13 -6
2 -11 -4 -11 -13z"/>
<path d="M4338 10579 c-51 -23 -68 -46 -40 -55 9 -3 26 -9 37 -14 11 -4 48
-18 83 -30 34 -13 91 -44 125 -70 83 -61 81 -60 136 -75 38 -10 49 -10 59 1
10 11 10 14 1 14 -18 0 -98 40 -105 52 -5 7 2 9 20 6 14 -3 26 -4 26 -3 0 20
-38 79 -72 112 -88 84 -174 104 -270 62z"/>
<path d="M4094 10528 c4 -18 19 -45 34 -61 28 -28 92 -53 92 -36 0 5 -7 9 -15
9 -8 0 -15 6 -15 13 0 6 -14 20 -31 29 -16 10 -35 31 -40 48 -15 41 -33 39
-25 -2z"/>
<path d="M4988 10486 c-116 -66 -188 -123 -188 -147 0 -7 7 -8 18 -4 9 4 31
13 47 19 17 6 42 19 56 29 15 10 58 24 97 32 115 24 138 37 126 69 -6 16 -53
46 -71 46 -4 0 -43 -20 -85 -44z"/>
<path d="M3447 10180 c-14 -11 -29 -20 -35 -20 -10 0 -9 -67 1 -77 9 -8 38 17
32 28 -3 4 6 26 20 49 28 44 22 51 -18 20z"/>
<path d="M4435 10167 c-4 -10 -5 -21 -1 -24 10 -10 18 4 13 24 -4 17 -4 17
-12 0z"/>
<path d="M4592 10128 c-14 -14 -16 -28 -2 -28 5 0 14 9 20 20 12 22 1 27 -18
8z"/>
<path d="M3705 10103 c-7 -23 -31 -31 -37 -13 -3 11 -58 -10 -58 -22 0 -4 -12
-2 -26 4 -24 11 -29 10 -54 -20 -15 -19 -36 -50 -46 -70 -11 -20 -30 -51 -42
-69 -37 -50 -16 -61 25 -14 32 39 63 53 63 31 0 -5 7 -10 15 -10 10 0 15 -10
15 -29 0 -33 30 -61 67 -61 29 0 37 15 17 35 -9 9 -15 18 -12 20 7 7 127 -24
151 -39 25 -16 125 -39 137 -31 7 4 61 -2 162 -19 14 -3 57 -8 94 -11 37 -3
72 -9 78 -12 6 -4 50 -8 98 -10 48 -2 125 -8 170 -14 46 -6 128 -15 183 -19
174 -15 349 -30 386 -33 20 -2 47 -11 60 -21 31 -22 115 -22 123 0 3 9 6 17 6
19 0 7 -90 55 -104 55 -8 0 -22 7 -31 16 -12 13 -22 14 -38 7 -12 -6 -42 -9
-67 -7 -25 2 -92 6 -150 10 -58 3 -109 10 -115 14 -15 11 -77 21 -71 11 12
-19 -45 -21 -87 -3 -33 15 -70 19 -170 21 -71 1 -136 6 -145 11 -21 11 -52 22
-72 25 -8 2 -30 8 -48 13 -18 6 -39 9 -46 6 -7 -3 -19 2 -26 11 -7 8 -25 15
-41 15 -15 0 -30 4 -33 9 -3 5 -24 7 -45 4 -44 -6 -196 6 -187 14 3 4 -2 11
-11 18 -14 10 -12 13 16 18 17 4 31 13 31 21 0 8 4 16 9 18 5 2 17 22 29 45
l20 42 -29 -6 c-23 -4 -29 -2 -29 11 0 16 -2 16 -31 -1 -30 -17 -31 -17 -45 1
-8 11 -14 14 -14 8 0 -19 -28 -14 -33 6 -4 14 -6 14 -12 -5z m25 -30 c0 -14
-19 -38 -25 -32 -8 8 5 39 16 39 5 0 9 -3 9 -7z"/>
<path d="M4307 10100 c-3 -8 -8 -30 -11 -47 -5 -27 -1 -36 19 -49 35 -23 70
-11 84 27 15 43 14 59 -4 59 -8 0 -15 -8 -15 -19 0 -22 -22 -43 -36 -33 -6 4
-15 23 -21 42 -7 23 -12 30 -16 20z"/>
<path d="M4914 10094 c3 -9 6 -18 6 -20 0 -2 9 -4 19 -4 14 0 18 5 14 20 -3
12 -14 20 -25 20 -14 0 -18 -5 -14 -16z"/>
<path d="M4553 10082 c-7 -4 -9 -13 -5 -19 6 -9 11 -6 20 7 13 21 6 26 -15 12z"/>
<path d="M4762 10065 c-7 -14 -12 -34 -12 -45 0 -10 -6 -20 -12 -23 -7 -2 -9
-8 -5 -13 13 -13 62 22 65 48 2 13 -3 31 -11 41 -12 18 -14 17 -25 -8z"/>
<path d="M5026 10057 c6 -17 5 -18 -14 -6 -14 9 -25 10 -31 4 -7 -7 2 -25 28
-55 33 -39 41 -43 54 -31 14 11 17 9 21 -11 3 -12 7 -36 8 -53 2 -24 7 -29 23
-27 11 2 21 5 22 5 1 1 -3 25 -9 52 -5 28 -10 56 -11 63 0 7 -12 15 -26 19
-14 3 -36 17 -48 32 -16 18 -21 20 -17 8z"/>
<path d="M4463 10047 c-28 -12 -30 -27 -4 -27 10 0 22 7 25 16 8 22 5 24 -21
11z"/>
<path d="M3908 9993 c7 -3 16 -2 19 1 4 3 -2 6 -13 5 -11 0 -14 -3 -6 -6z"/>
<path d="M5209 9968 c-3 -51 5 -124 14 -130 19 -12 24 -10 30 12 8 31 27 24
27 -10 0 -22 11 -41 39 -69 21 -21 45 -55 52 -75 7 -20 19 -36 26 -36 7 0 13
-7 13 -15 0 -7 8 -19 18 -24 15 -9 15 -10 1 -11 -12 0 -15 -7 -11 -25 2 -14
10 -25 17 -25 14 0 45 32 45 48 0 6 7 18 16 27 15 15 15 23 -1 103 -19 99 -50
161 -76 155 -9 -3 -20 0 -23 6 -10 16 -26 14 -26 -3 0 -9 -7 -12 -20 -9 -11 3
-20 9 -20 13 0 4 -11 11 -25 14 -14 4 -25 11 -25 16 0 5 -7 7 -15 4 -9 -4 -19
3 -26 20 -13 27 -28 35 -30 14z"/>
<path d="M4460 9380 c6 -11 20 -20 30 -20 11 0 20 -1 20 -3 0 -1 8 -27 19 -56
16 -45 25 -57 69 -82 32 -18 52 -24 54 -17 3 8 25 5 73 -10 52 -16 71 -18 77
-9 5 8 0 13 -15 15 -30 5 -49 22 -43 39 3 7 -6 20 -19 29 -37 24 -32 44 9 37
62 -10 98 38 49 64 -28 14 -176 33 -266 33 -65 0 -67 -1 -57 -20z"/>
<path d="M2840 9351 c0 -5 7 -11 15 -15 9 -3 15 0 15 9 0 8 -7 15 -15 15 -8 0
-15 -4 -15 -9z"/>
<path d="M4750 9280 c0 -12 28 -25 36 -17 3 3 -4 10 -15 17 -15 7 -21 7 -21 0z"/>
<path d="M2920 9241 c0 -5 5 -13 10 -16 6 -3 10 -2 10 4 0 5 -4 13 -10 16 -5
3 -10 2 -10 -4z"/>
<path d="M3537 9037 c-18 -23 -23 -47 -8 -47 8 0 34 60 28 66 -1 1 -10 -7 -20
-19z"/>
<path d="M3226 8961 c10 -10 21 -17 23 -15 6 6 -20 34 -32 34 -6 0 -2 -8 9
-19z"/>
<path d="M4185 8650 c-3 -5 -1 -10 4 -10 6 0 11 5 11 10 0 6 -2 10 -4 10 -3 0
-8 -4 -11 -10z"/>
<path d="M5781 8618 c0 -9 -4 -25 -7 -35 -5 -17 -5 -17 6 0 6 10 9 25 7 35 -4
15 -5 15 -6 0z"/>
<path d="M1876 8544 c-8 -21 -8 -24 3 -24 5 0 11 9 14 20 6 24 -8 27 -17 4z"/>
<path d="M1647 8543 c-14 -13 -6 -24 15 -21 27 4 36 28 11 28 -11 0 -23 -3
-26 -7z"/>
<path d="M5781 8505 c-1 -17 3 -35 8 -40 14 -15 42 -123 48 -181 l5 -52 46 -7
c26 -4 88 -18 139 -31 104 -27 154 -30 186 -10 20 14 26 12 67 -16 46 -32 108
-46 154 -34 56 14 18 59 -51 62 -25 1 -48 6 -52 12 -3 5 -24 15 -46 23 -22 7
-45 17 -52 22 -7 5 -17 6 -23 2 -5 -3 -13 0 -16 8 -3 8 -21 18 -40 21 -19 4
-34 12 -34 19 0 19 -51 39 -66 26 -8 -7 -14 -7 -19 1 -3 5 -17 10 -30 10 -13
0 -27 5 -30 10 -4 6 -18 9 -33 8 -21 -1 -39 11 -82 55 -30 31 -60 72 -67 90
l-11 32 -1 -30z"/>
<path d="M1585 8450 c-4 -6 -12 -10 -18 -8 -24 4 -77 -14 -77 -26 0 -40 70
-120 85 -97 3 5 1 13 -5 16 -6 4 -8 15 -5 25 4 14 1 16 -20 12 -15 -2 -25 0
-25 7 0 18 29 25 45 11 21 -17 40 -7 59 31 9 18 16 34 16 36 0 8 -49 2 -55 -7z"/>
<path d="M3040 8360 c0 -5 9 -10 20 -10 11 0 20 5 20 10 0 6 -9 10 -20 10 -11
0 -20 -4 -20 -10z"/>
<path d="M5270 8236 c0 -2 7 -9 15 -16 12 -10 15 -10 15 4 0 9 -7 16 -15 16
-8 0 -15 -2 -15 -4z"/>
<path d="M5676 8085 c-18 -27 -21 -45 -8 -45 5 0 13 16 19 35 13 41 11 44 -11
10z"/>
<path d="M5637 8010 c-12 -32 -14 -86 -5 -112 17 -48 26 -31 21 40 -5 78 -9
93 -16 72z"/>
<path d="M5660 7857 c0 -31 83 -123 146 -162 16 -10 39 -29 52 -42 13 -13 31
-23 42 -23 10 0 22 -5 25 -10 6 -10 -17 -40 -32 -40 -12 0 -55 -42 -99 -97
-21 -26 -44 -52 -50 -58 -7 -5 -14 -21 -18 -35 -3 -14 -21 -36 -40 -48 -19
-13 -36 -33 -38 -45 -2 -12 -10 -23 -19 -25 -18 -3 -36 31 -20 36 14 5 14 22
1 22 -17 0 -24 -30 -12 -53 5 -12 13 -31 16 -41 5 -15 9 -17 19 -7 9 9 15 7
27 -9 25 -32 54 -16 69 38 19 69 95 221 134 266 33 38 33 38 120 43 66 3 108
-1 171 -16 104 -26 106 -26 106 -1 0 11 7 23 15 26 23 9 7 24 -25 24 -16 0
-32 5 -35 10 -3 6 -34 10 -68 10 -57 0 -117 19 -187 61 -8 5 -26 14 -40 20
-18 8 -21 12 -11 18 9 6 -4 11 -38 16 -28 4 -49 10 -46 15 2 4 -13 10 -35 14
-22 3 -40 11 -40 16 0 6 -7 10 -15 10 -8 0 -15 7 -15 15 0 8 -4 15 -10 15 -5
0 -19 9 -30 20 -11 11 -20 18 -20 17z"/>
<path d="M5114 7681 c4 -25 11 -89 16 -144 5 -54 12 -102 15 -107 3 -4 7 -95
10 -202 7 -262 12 -308 36 -308 11 0 19 6 20 13 9 170 8 199 -1 218 -10 17 -8
21 10 26 15 4 21 13 20 32 -3 41 -1 48 15 65 12 12 14 20 5 36 -6 11 -15 20
-21 20 -6 0 -3 -7 5 -16 19 -19 12 -34 -15 -34 -23 0 -38 34 -42 91 -1 21 -6
41 -10 45 -12 12 -8 37 10 56 10 11 13 19 8 18 -22 -5 -35 1 -35 15 0 8 6 15
13 15 8 0 8 3 -2 9 -8 5 -16 32 -19 62 -2 30 -9 60 -15 67 -6 8 -13 23 -14 35
-2 11 -6 23 -10 26 -3 3 -3 -14 1 -38z"/>
<path d="M4635 7690 c-3 -5 -1 -10 4 -10 6 0 11 5 11 10 0 6 -2 10 -4 10 -3 0
-8 -4 -11 -10z"/>
<path d="M5185 7568 c2 -24 9 -44 15 -46 5 -2 10 -22 10 -45 0 -55 16 -36 24
31 5 36 3 52 -5 52 -6 0 -9 8 -6 19 4 18 -9 31 -33 31 -5 0 -7 -19 -5 -42z"/>
<path d="M5521 7512 c-15 -29 -31 -136 -21 -146 10 -10 25 37 22 69 -1 11 3
35 9 53 12 38 6 54 -10 24z"/>
<path d="M5231 7431 c-9 -6 -11 -16 -6 -32 l8 -24 9 24 c11 31 7 43 -11 32z"/>
<path d="M5620 7375 c-10 -13 -9 -15 9 -15 12 0 21 6 21 15 0 8 -4 15 -9 15
-5 0 -14 -7 -21 -15z"/>
<path d="M5810 7340 c0 -5 5 -10 10 -10 6 0 10 5 10 10 0 6 -4 10 -10 10 -5 0
-10 -4 -10 -10z"/>
<path d="M5796 7182 c-6 -26 -2 -43 22 -85 19 -33 37 -53 51 -55 28 -4 27 14
-4 54 -14 18 -34 53 -44 76 l-18 43 -7 -33z"/>
<path d="M5275 7190 c3 -5 -1 -10 -9 -10 -22 0 -20 -9 10 -36 31 -29 49 -32
34 -5 -5 11 -10 29 -10 40 0 12 -7 21 -16 21 -8 0 -12 -4 -9 -10z"/>
<path d="M5680 7113 c0 -16 12 -48 26 -72 13 -25 23 -50 20 -58 -17 -44 43
-57 130 -27 45 15 50 15 116 -6 68 -21 114 -24 100 -5 -4 6 -40 27 -81 47 -67
34 -76 36 -91 23 -9 -8 -20 -15 -25 -15 -10 0 -45 40 -45 52 0 4 -8 8 -17 8
-9 0 -34 18 -54 40 -45 48 -79 54 -79 13z"/>
<path d="M5161 6443 c-6 -21 -13 -74 -17 -118 -10 -125 -23 -187 -58 -280 -8
-22 -15 -50 -16 -62 0 -12 -4 -25 -10 -28 -5 -3 -10 -22 -10 -41 0 -19 -4 -42
-9 -52 -16 -32 -51 -147 -51 -166 0 -28 18 -8 24 28 3 16 14 35 26 43 14 10
20 25 20 53 0 31 5 43 24 55 24 16 26 44 3 73 -5 7 -7 15 -3 19 3 3 6 1 6 -7
0 -10 3 -10 15 0 9 8 15 30 15 59 0 25 7 55 15 65 8 11 15 37 15 57 0 21 4 40
9 43 8 6 18 70 28 186 3 36 9 72 14 81 9 18 3 29 -17 29 -7 0 -18 -17 -23 -37z"/>
<path d="M6975 6444 c-16 -12 -20 -27 -20 -75 0 -50 -4 -64 -22 -78 -24 -20
-44 -121 -23 -121 6 0 8 -4 5 -10 -3 -5 1 -10 9 -10 8 0 18 -9 21 -20 7 -21
30 -27 40 -10 10 17 19 11 43 -26 16 -24 22 -46 20 -66 -3 -16 -2 -27 1 -26
66 35 85 60 60 85 -6 6 -9 21 -7 34 2 18 9 23 26 22 12 -2 22 2 22 7 0 6 -7
10 -15 10 -9 0 -14 8 -12 23 2 17 -3 22 -20 20 -13 -2 -23 2 -23 7 0 6 -20 10
-44 10 -28 0 -48 6 -57 16 -16 20 -20 45 -9 59 26 32 53 166 33 165 -5 0 -17
-7 -28 -16z m3 -241 c-5 -25 -28 -28 -28 -4 0 12 6 21 16 21 9 0 14 -7 12 -17z
m84 -25 c-6 -27 -20 -38 -39 -31 -18 7 -16 30 5 42 28 17 41 13 34 -11z"/>
<path d="M7043 6337 c-34 -23 -43 -51 -19 -60 17 -7 57 3 73 17 7 6 20 17 28
25 15 12 14 15 -10 27 -34 17 -33 17 -72 -9z"/>
<path d="M5878 6334 c-14 -14 15 -64 40 -70 15 -4 30 -9 35 -11 9 -5 -11 -44
-31 -59 -18 -13 -9 -44 13 -44 17 0 20 -16 5 -25 -5 -3 -10 -17 -10 -30 0 -18
7 -26 24 -31 26 -6 50 2 42 15 -3 4 4 8 15 8 10 1 19 -2 19 -7 0 -5 7 -7 15
-4 8 4 13 9 11 13 -3 4 -1 23 3 44 8 34 7 36 -17 39 -31 4 -43 28 -13 28 25 0
37 18 17 26 -11 4 -13 12 -6 29 8 21 5 25 -22 34 -18 6 -39 17 -47 25 -18 15
-84 30 -93 20z m122 -204 c0 -5 -5 -10 -11 -10 -5 0 -7 5 -4 10 3 6 8 10 11
10 2 0 4 -4 4 -10z"/>
<path d="M7422 6194 c4 -21 22 -23 26 -1 2 10 -3 17 -13 17 -10 0 -15 -6 -13
-16z"/>
<path d="M6110 6170 c0 -5 5 -10 11 -10 5 0 7 5 4 10 -3 6 -8 10 -11 10 -2 0
-4 -4 -4 -10z"/>
<path d="M3880 6163 c8 -3 23 -10 33 -15 12 -6 17 -5 17 7 0 10 -10 15 -32 14
-18 0 -26 -3 -18 -6z"/>
<path d="M3942 6128 c6 -18 28 -21 28 -4 0 9 -7 16 -16 16 -9 0 -14 -5 -12
-12z"/>
<path d="M4022 6079 c2 -6 8 -10 13 -10 5 0 11 4 13 10 2 6 -4 11 -13 11 -9 0
-15 -5 -13 -11z"/>
<path d="M6621 6063 c3 -46 15 -65 51 -78 21 -7 49 -10 62 -8 18 4 40 -5 76
-31 58 -41 72 -44 107 -16 16 12 41 20 64 20 21 0 40 4 43 9 3 4 17 6 31 3 39
-7 30 12 -12 25 -27 8 -42 8 -50 1 -10 -8 -13 -6 -13 9 0 29 -11 35 -31 17
-16 -14 -18 -14 -24 5 -4 15 -15 21 -34 21 -15 0 -31 -3 -34 -7 -12 -11 -57
-9 -57 3 0 12 -53 24 -108 24 -18 0 -42 5 -53 10 -15 9 -19 7 -18 -7z"/>
<path d="M5983 6037 c-4 -8 -16 -17 -26 -20 -24 -9 -12 -27 19 -27 27 0 31 -8
9 -24 -12 -9 -12 -14 0 -29 13 -18 14 -17 23 15 16 59 -2 122 -25 85z"/>
<path d="M8786 6015 c-3 -8 -1 -15 4 -15 6 0 10 7 10 15 0 8 -2 15 -4 15 -2 0
-6 -7 -10 -15z"/>
<path d="M8770 5974 c0 -12 -7 -15 -25 -12 -19 4 -33 -3 -55 -25 -16 -17 -32
-39 -36 -49 -3 -10 -16 -21 -29 -24 -27 -7 -44 -52 -23 -65 8 -5 14 -3 16 5 2
8 25 16 60 20 51 6 108 25 75 26 -21 0 -15 25 12 50 25 24 36 90 15 90 -5 0
-10 -7 -10 -16z"/>
<path d="M8605 5960 c-3 -5 -1 -10 4 -10 6 0 11 5 11 10 0 6 -2 10 -4 10 -3 0
-8 -4 -11 -10z"/>
<path d="M9437 5954 c-8 -8 3 -34 14 -34 5 0 9 9 9 20 0 19 -11 26 -23 14z"/>
<path d="M6662 5894 c2 -31 6 -58 10 -60 3 -2 9 -22 13 -45 4 -22 12 -42 19
-45 7 -3 11 -21 9 -44 -1 -31 3 -43 18 -53 10 -6 19 -21 19 -32 0 -12 5 -26
10 -31 7 -7 8 -19 1 -37 -8 -21 -7 -31 5 -46 18 -20 53 -116 54 -143 0 -10 9
-27 20 -38 12 -12 18 -25 15 -29 -2 -5 2 -14 10 -21 19 -16 19 -44 0 -60 -13
-11 -13 -15 -3 -21 22 -14 27 -10 26 21 -1 17 2 33 6 37 9 9 24 -8 28 -32 1
-11 10 -25 18 -32 8 -6 12 -15 8 -19 -14 -13 12 -31 37 -26 18 3 25 11 25 26
0 12 5 27 12 34 6 6 8 15 3 19 -4 5 -10 2 -12 -4 -7 -20 -23 -15 -23 7 0 11
-9 29 -20 40 -25 25 -25 30 -2 30 10 0 23 5 30 12 8 8 15 8 27 -2 12 -10 15
-10 15 4 0 9 -4 16 -10 16 -5 0 -10 14 -10 30 0 23 4 30 20 30 12 0 20 7 21
18 8 121 15 131 67 87 17 -14 39 -25 51 -25 25 0 24 -2 10 39 -8 23 -8 35 0
45 10 11 8 16 -8 21 -39 12 -20 31 25 26 15 -2 26 41 14 53 -13 13 -60 17 -60
5 0 -5 -4 -9 -10 -9 -5 0 -10 7 -10 16 0 14 -2 15 -17 3 -14 -12 -16 -12 -11
1 2 8 -6 26 -19 40 -13 14 -24 34 -24 45 -1 11 -2 28 -3 38 -1 18 -22 37 -42
37 -5 0 -16 -16 -24 -35 -14 -35 -21 -41 -33 -28 -4 3 1 12 11 19 16 13 15 14
-5 20 -15 4 -23 14 -23 27 0 16 3 18 12 9 16 -16 41 -15 36 1 -3 6 -18 13 -34
14 -42 3 -102 19 -117 32 -8 6 -38 13 -69 17 -42 5 -59 12 -73 30 -31 42 -47
31 -43 -32z m373 -173 c7 -12 -12 -24 -25 -16 -11 7 -4 25 10 25 5 0 11 -4 15
-9z m-98 -63 c-3 -8 -6 -5 -6 6 -1 11 2 17 5 13 3 -3 4 -12 1 -19z m112 -104
c38 -8 39 -16 4 -39 -23 -16 -25 -16 -20 -1 5 12 0 16 -18 16 -24 0 -32 10
-18 23 8 9 13 9 52 1z m-19 -114 c0 -5 -4 -10 -10 -10 -5 0 -10 5 -10 10 0 6
5 10 10 10 6 0 10 -4 10 -10z m-30 -70 c0 -5 -4 -10 -10 -10 -5 0 -10 -7 -10
-15 0 -8 -4 -15 -10 -15 -11 0 -13 11 -4 34 7 17 34 22 34 6z"/>
<path d="M5960 5900 c0 -5 5 -10 11 -10 5 0 7 5 4 10 -3 6 -8 10 -11 10 -2 0
-4 -4 -4 -10z"/>
<path d="M5965 5840 c3 -5 10 -10 16 -10 5 0 9 5 9 10 0 6 -7 10 -16 10 -8 0
-12 -4 -9 -10z"/>
<path d="M7101 5776 l-23 -24 21 -7 c23 -7 27 -20 9 -31 -16 -10 25 -24 51
-17 26 7 27 19 1 35 -11 7 -20 23 -20 35 0 32 -14 35 -39 9z"/>
<path d="M8865 5724 c-14 -15 -25 -30 -25 -34 0 -13 62 -4 70 10 4 7 16 9 29
5 33 -10 25 12 -11 29 -39 20 -35 21 -63 -10z"/>
<path d="M6036 5692 c-3 -6 -1 -14 5 -17 15 -10 25 3 12 16 -7 7 -13 7 -17 1z"/>
<path d="M8376 5674 c-22 -32 -17 -56 12 -69 13 -6 22 -19 22 -33 0 -30 19
-36 84 -28 45 6 53 10 49 25 -3 10 6 27 21 42 23 21 35 49 21 49 -3 0 -19 -12
-36 -27 -17 -16 -36 -27 -42 -25 -6 2 -14 -2 -18 -9 -5 -9 -11 -8 -24 4 -9 10
-22 14 -28 11 -8 -5 -9 -4 -2 4 6 5 19 12 30 15 14 3 12 5 -9 6 -16 0 -38 -7
-49 -16 -19 -18 -20 -17 -15 12 3 17 9 38 13 48 11 26 -10 20 -29 -9z"/>
<path d="M8666 5613 c-13 -13 -6 -63 9 -63 10 0 15 10 15 29 0 30 -12 46 -24
34z"/>
<path d="M8635 5529 c-4 -6 -5 -13 -2 -16 7 -7 27 6 27 18 0 12 -17 12 -25 -2z"/>
<path d="M8397 5506 c-12 -30 -8 -35 18 -23 26 13 36 33 11 24 -8 -3 -16 -1
-19 6 -2 6 -6 3 -10 -7z"/>
<path d="M8587 5493 c-12 -11 -7 -33 7 -33 12 0 26 20 26 36 0 7 -26 5 -33 -3z"/>
<path d="M7240 5480 c8 -5 22 -9 30 -9 10 0 8 3 -5 9 -27 12 -43 12 -25 0z"/>
<path d="M7916 5471 c-9 -13 3 -39 21 -45 23 -9 28 0 15 29 -12 26 -26 32 -36
16z"/>
<path d="M8655 5465 c-5 -11 -15 -25 -22 -30 -12 -9 -12 -15 0 -38 13 -26 31
-28 21 -3 -3 7 7 18 21 26 26 14 35 36 11 27 -10 -4 -16 2 -19 16 -3 21 -4 21
-12 2z"/>
<path d="M8013 5433 c-20 -7 -15 -47 6 -60 24 -15 31 -8 31 34 0 32 -8 38 -37
26z"/>
<path d="M4945 5420 c-3 -5 -1 -10 4 -10 6 0 11 5 11 10 0 6 -2 10 -4 10 -3 0
-8 -4 -11 -10z"/>
<path d="M7085 5403 c-4 -13 -11 -23 -16 -23 -5 0 -9 -7 -9 -15 0 -9 6 -12 15
-9 8 4 22 1 29 -5 10 -8 16 -9 21 -1 3 5 2 10 -4 10 -6 0 -15 15 -20 33 -9 30
-10 30 -16 10z"/>
<path d="M7230 5376 c0 -8 5 -18 10 -21 6 -4 8 -15 5 -26 -4 -13 -2 -19 9 -19
20 0 21 38 2 63 -16 21 -26 22 -26 3z"/>
<path d="M7302 5320 c13 -20 28 -27 28 -12 0 10 -22 32 -32 32 -5 0 -3 -9 4
-20z"/>
<path d="M7196 5323 c-11 -11 -6 -23 8 -23 8 0 17 4 20 9 7 10 -19 23 -28 14z"/>
<path d="M7142 5309 c2 -6 8 -10 13 -10 5 0 11 4 13 10 2 6 -4 11 -13 11 -9 0
-15 -5 -13 -11z"/>
<path d="M7010 5254 c0 -9 5 -14 12 -12 18 6 21 28 4 28 -9 0 -16 -7 -16 -16z"/>
<path d="M8171 5229 c-13 -5 -31 -7 -41 -4 -9 3 -24 -3 -33 -13 -16 -18 -16
-19 8 -30 14 -7 34 -12 43 -12 15 0 15 -2 2 -10 -10 -6 -11 -10 -2 -10 6 0 12
-7 12 -15 0 -8 5 -15 10 -15 6 0 10 -9 10 -20 0 -23 45 -39 63 -21 8 8 4 11
-16 11 -15 0 -27 5 -27 10 0 6 11 10 25 10 14 0 28 0 33 0 4 0 8 -9 8 -21 1
-22 24 -52 24 -31 0 6 12 22 27 36 l27 25 -23 25 c-15 16 -37 26 -60 28 -31 3
-37 7 -41 32 -6 34 -15 39 -49 25z m52 -76 c-7 -2 -19 -2 -25 0 -7 3 -2 5 12
5 14 0 19 -2 13 -5z"/>
<path d="M8386 5231 c-4 -7 -5 -15 -2 -18 9 -9 19 4 14 18 -4 11 -6 11 -12 0z"/>
<path d="M8336 5161 c-3 -5 3 -11 14 -14 21 -5 32 1 24 14 -7 12 -31 11 -38 0z"/>
<path d="M8390 5112 c0 -34 14 -43 24 -15 4 9 0 23 -9 32 -13 14 -15 12 -15
-17z"/>
<path d="M6935 5120 c3 -5 11 -10 16 -10 6 0 7 5 4 10 -3 6 -11 10 -16 10 -6
0 -7 -4 -4 -10z"/>
<path d="M8350 5111 c0 -6 5 -13 10 -16 6 -3 10 1 10 9 0 9 -4 16 -10 16 -5 0
-10 -4 -10 -9z"/>
<path d="M8310 4949 c0 -5 5 -7 10 -4 6 3 10 8 10 11 0 2 -4 4 -10 4 -5 0 -10
-5 -10 -11z"/>
<path d="M7437 4895 c-4 -8 -2 -17 3 -20 6 -4 10 3 10 14 0 25 -6 27 -13 6z"/>
<path d="M8562 4658 c6 -18 28 -21 28 -4 0 9 -7 16 -16 16 -9 0 -14 -5 -12
-12z"/>
<path d="M8770 4235 c0 -8 5 -15 10 -15 6 0 10 7 10 15 0 8 -4 15 -10 15 -5 0
-10 -7 -10 -15z"/>
<path d="M8756 4171 c-4 -5 -2 -12 3 -15 5 -4 12 -2 15 3 4 5 2 12 -3 15 -5 4
-12 2 -15 -3z"/>
<path d="M10366 4053 c-3 -3 -3 -9 -1 -13 6 -9 45 -1 45 9 0 8 -36 12 -44 4z"/>
<path d="M9161 3814 c0 -11 3 -14 6 -6 3 7 2 16 -1 19 -3 4 -6 -2 -5 -13z"/>
<path d="M9920 3820 c0 -5 9 -10 20 -10 11 0 20 5 20 10 0 6 -9 10 -20 10 -11
0 -20 -4 -20 -10z"/>
<path d="M10148 3706 c-3 -15 -1 -29 3 -32 14 -8 22 23 11 42 -8 14 -10 13
-14 -10z"/>
<path d="M10185 3679 c-12 -19 5 -23 22 -6 16 16 16 17 1 17 -9 0 -20 -5 -23
-11z"/>
<path d="M10108 3620 c-7 -11 -20 -20 -28 -20 -12 -1 -11 -4 4 -15 17 -13 21
-13 33 5 8 11 18 18 23 15 4 -3 10 4 13 15 7 27 -28 27 -45 0z"/>
<path d="M8890 2653 c0 -23 100 -325 116 -350 8 -12 14 -27 14 -34 0 -6 16
-45 37 -87 20 -43 39 -86 44 -97 4 -11 17 -45 28 -75 11 -30 32 -84 46 -119
14 -36 25 -72 25 -82 0 -10 16 -62 35 -116 67 -188 107 -352 125 -513 13 -117
18 -132 31 -108 19 33 27 355 10 387 -5 9 -12 50 -16 91 -8 88 -22 150 -34
150 -5 0 -8 12 -7 28 0 15 -3 28 -8 29 -18 3 -26 29 -26 86 0 50 -3 59 -22 67
-13 5 -17 9 -10 9 6 1 12 10 12 22 0 15 -4 19 -16 15 -14 -5 -15 -1 -11 26 2
19 -3 54 -14 83 -10 28 -18 61 -17 75 0 28 -30 134 -31 110 -1 -8 -12 8 -25
35 -14 28 -38 63 -55 79 -17 17 -31 35 -31 43 0 7 -9 17 -20 23 -11 6 -20 17
-20 25 0 7 -10 26 -23 42 -13 15 -27 36 -30 46 -4 11 -16 21 -27 24 -12 3 -23
17 -26 32 -3 14 -9 33 -13 41 -9 17 -41 27 -41 13z"/>
<path d="M9513 2093 c-25 -9 -4 -104 93 -418 36 -119 84 -299 114 -435 13 -58
61 -252 73 -297 19 -71 30 -56 42 59 7 63 -10 323 -25 378 -5 19 -21 82 -35
140 -15 58 -33 121 -42 140 -8 19 -18 44 -23 55 -28 75 -97 204 -110 205 -12
0 -12 2 2 10 14 9 15 16 6 43 -6 17 -19 39 -29 49 -11 9 -19 25 -19 35 0 20
-28 42 -47 36z"/>
<path d="M8860 1941 c0 -5 5 -13 10 -16 6 -3 10 -2 10 4 0 5 -4 13 -10 16 -5
3 -10 2 -10 -4z"/>
<path d="M8876 1882 c-3 -5 6 -71 20 -148 14 -76 30 -163 35 -193 5 -29 13
-61 18 -70 5 -9 12 -43 16 -76 4 -33 14 -89 22 -125 8 -36 19 -90 23 -120 9
-57 37 -221 64 -369 8 -45 17 -86 20 -89 14 -13 15 10 7 89 -5 46 -17 151 -26
233 -9 83 -21 159 -27 169 -5 11 -12 56 -15 101 -3 44 -11 95 -18 111 -8 17
-17 53 -20 80 -4 28 -15 75 -25 105 -10 30 -26 96 -36 145 -9 50 -21 94 -26
100 -4 5 -8 22 -8 37 0 27 -13 37 -24 20z"/>
<path d="M10480 1686 c0 -8 -6 -16 -14 -18 -12 -2 -12 -8 -3 -31 l12 -28 23
21 c28 27 30 70 2 70 -11 0 -20 -6 -20 -14z"/>
<path d="M10785 1641 c-3 -5 -1 -12 5 -16 5 -3 10 1 10 9 0 18 -6 21 -15 7z"/>
<path d="M10540 1605 c0 -29 31 -65 56 -65 19 0 24 5 24 26 0 15 -8 33 -17 40
-25 19 -63 18 -63 -1z"/>
<path d="M10724 1576 c-11 -28 0 -91 16 -91 22 0 27 90 5 99 -9 3 -18 0 -21
-8z"/>
<path d="M10423 863 c13 -62 34 -93 62 -93 13 0 25 -7 29 -15 3 -8 14 -15 25
-15 11 0 22 -6 24 -12 4 -10 6 -10 6 0 1 12 -22 41 -95 118 -18 19 -34 41 -38
49 -3 8 -9 15 -14 15 -6 0 -5 -20 1 -47z"/>
<path d="M9100 640 c0 -5 5 -10 10 -10 6 0 10 5 10 10 0 6 -4 10 -10 10 -5 0
-10 -4 -10 -10z"/>
<path d="M9112 570 c0 -19 2 -27 5 -17 2 9 2 25 0 35 -3 9 -5 1 -5 -18z"/>
<path d="M764 247 c-21 -25 -22 -46 -3 -83 10 -21 19 -50 19 -65 0 -15 7 -34
15 -43 8 -8 15 -24 15 -35 0 -18 6 -21 49 -21 l50 0 -5 37 c-7 48 -24 93 -35
93 -5 0 -9 6 -9 14 0 8 -7 22 -16 31 -9 9 -20 31 -23 48 -7 34 -37 47 -57 24z"/>
<path d="M1426 174 c9 -134 17 -168 38 -172 18 -4 19 1 12 59 -5 52 -39 173
-52 188 -2 3 -2 -31 2 -75z"/>
</g>
</svg>
