<?xml version="1.0" standalone="no"?>
<!DOCTYPE svg PUBLIC "-//W3C//DTD SVG 20010904//EN"
 "http://www.w3.org/TR/2001/REC-SVG-20010904/DTD/svg10.dtd">
<svg version="1.0" xmlns="http://www.w3.org/2000/svg"
 width="50.000000pt" height="50.000000pt" viewBox="0 0 50.000000 50.000000"
 preserveAspectRatio="xMidYMid meet">

<g transform="translate(0.000000,50.000000) scale(0.100000,-0.100000)"
fill="#000000" stroke="none">
<path d="M0 400 c0 -6 90 -10 250 -10 160 0 250 4 250 10 0 6 -90 10 -250 10
-160 0 -250 -4 -250 -10z"/>
<path d="M0 250 c0 -6 90 -10 250 -10 160 0 250 4 250 10 0 6 -90 10 -250 10
-160 0 -250 -4 -250 -10z"/>
<path d="M0 100 c0 -6 90 -10 250 -10 160 0 250 4 250 10 0 6 -90 10 -250 10
-160 0 -250 -4 -250 -10z"/>
</g>
</svg>
